<svg width="159" height="117" viewBox="0 0 159 117" fill="none" xmlns="http://www.w3.org/2000/svg">
<path d="M157.237 112.869C157.237 114.567 155.989 115.707 154.512 115.707V115.697C152.994 115.707 151.769 114.567 151.769 112.869C151.769 111.171 152.994 110.035 154.512 110.035C155.989 110.035 157.237 111.172 157.237 112.869V112.869ZM158.342 112.869C158.342 110.537 156.531 109.184 154.512 109.184C152.494 109.184 150.669 110.537 150.669 112.869C150.669 115.2 152.481 116.556 154.512 116.556C156.544 116.556 158.342 115.198 158.342 112.869ZM153.877 113.181H154.287L155.237 114.849H156.28L155.228 113.11C155.772 113.072 156.219 112.814 156.219 112.082C156.219 111.172 155.591 110.88 154.53 110.88H152.993V114.849H153.877V113.181M153.877 112.508V111.553H154.492C154.826 111.553 155.281 111.58 155.281 111.987C155.281 112.43 155.046 112.508 154.652 112.508H153.877M132.553 92.5641L137.328 105.622H127.631L132.554 92.5641H132.553ZM127.439 87.4796L116.436 115.35H124.205L125.946 110.425H138.967L140.614 115.35H149.049L137.964 87.4758L127.439 87.4796ZM105.349 115.36H113.231V87.4707L105.347 87.4688L105.349 115.36ZM50.6244 87.4688L44.0475 109.573L37.7474 87.4707L29.2419 87.4688L38.2395 115.36H49.5958L58.6663 87.4688H50.6238H50.6244ZM82.4878 93.5424H85.8764C90.7913 93.5424 93.9708 95.7484 93.9708 101.474C93.9708 107.199 90.7913 109.406 85.8764 109.406H82.4878V93.543V93.5424ZM74.6714 87.4688V115.36H87.4509C94.2596 115.36 96.4834 114.229 98.8876 111.691C100.586 109.908 101.684 105.997 101.684 101.722C101.684 97.8006 100.755 94.3041 99.134 92.1259C96.2148 88.2312 92.0086 87.4688 85.7307 87.4688H74.6714ZM0 87.4302V115.36H7.94939V94.1528L14.1089 94.1547C16.1483 94.1547 17.6025 94.6631 18.5843 95.7117C19.8301 97.0382 20.3387 99.179 20.3387 103.097V115.36H28.0417V99.9287C28.0417 88.915 21.0196 87.4302 14.1494 87.4302H0ZM61.9845 87.4688L61.9876 115.36H69.8667V87.4688H61.9845Z" fill="black"/>
<path d="M21.1849 31.9343C21.1849 31.9343 31.3238 16.9796 51.5668 15.4328V10.0069C29.145 11.8071 9.72852 30.7927 9.72852 30.7927C9.72852 30.7927 20.7257 62.5745 51.5675 65.4852V59.7181C28.9341 56.8713 21.1855 31.9343 21.1855 31.9343H21.1849ZM51.5675 48.2491V53.5312C34.4621 50.4818 29.7138 32.7062 29.7138 32.7062C29.7138 32.7062 37.9267 23.6104 51.5675 22.1351V27.9307C51.5573 27.9307 51.5498 27.9275 51.5415 27.9275C44.3819 27.0689 38.7893 33.7548 38.7893 33.7548C38.7893 33.7548 41.9238 45.0104 51.5675 48.2498M51.5675 0V10.0069C52.2255 9.95629 52.8836 9.91387 53.5455 9.89108C79.0372 9.03247 95.6467 30.7921 95.6467 30.7921C95.6467 30.7921 76.5703 53.9821 56.6959 53.9821C54.8743 53.9821 53.1693 53.813 51.5675 53.5293V59.7175C52.9843 59.8992 54.4107 59.9917 55.8389 59.9929C74.3332 59.9929 87.708 50.5502 100.659 39.3743C102.806 41.0935 111.597 45.2757 113.404 47.1062C101.09 57.4133 72.392 65.7214 56.122 65.7214C54.5538 65.7214 53.0477 65.6264 51.5675 65.4833V74.1789H121.864V0H51.5675ZM51.5675 22.1345V15.4328C52.2192 15.3872 52.8754 15.3523 53.5455 15.3308C71.8764 14.7552 83.9028 31.0789 83.9028 31.0789C83.9028 31.0789 70.913 49.1141 56.9859 49.1141C54.9813 49.1141 53.1845 48.7918 51.5668 48.2485V27.9294C58.703 28.7912 60.1395 31.9432 64.4299 39.0932L73.9722 31.0498C73.9722 31.0498 67.0064 21.9173 55.2644 21.9173C53.9876 21.9173 52.7664 22.0065 51.5668 22.1351" fill="#77B900"/>
</svg>
