<?xml version="1.0" encoding="UTF-8"?>
<svg id="Layer_1" data-name="Layer 1" xmlns="http://www.w3.org/2000/svg" viewBox="0 0 2500 1465">
  <defs>
    <style>
      .cls-1 {
        fill: #252f3e;
      }

      .cls-2 {
        fill: #f90;
        fill-rule: evenodd;
      }
    </style>
  </defs>
  <path class="cls-1" d="m718.16,533.05c0,30.02,3.29,54.28,8.94,72.17,6.48,17.79,14.6,37.32,25.91,58.4,4.01,6.48,5.65,12.95,5.65,18.61,0,8.12-4.83,16.24-15.42,24.37l-51.1,34.03c-7.3,4.83-14.6,7.3-21.08,7.3-8.12,0-16.24-4.01-24.37-11.31-11.31-12.13-21.08-25.09-29.2-38.14-8.12-13.78-16.24-29.2-25.09-47.81-63.13,74.54-142.5,111.86-238.21,111.86-68.06,0-122.45-19.43-162.13-58.4-39.69-38.97-59.94-90.78-59.94-155.66,0-68.88,24.37-124.81,73.72-166.97,49.35-42.15,115.15-63.23,198.63-63.23,27.55,0,55.93,2.47,85.95,6.48,30.02,4.01,60.76,10.49,93.25,17.79v-59.22c0-61.58-12.95-104.56-38.14-129.65-25.91-25.09-69.71-37.32-132.11-37.32-28.38,0-57.57,3.29-87.6,10.49-30.02,7.3-59.22,16.24-87.6,27.55-12.95,5.65-22.72,8.94-28.38,10.49s-9.77,2.47-12.95,2.47c-11.31,0-17.07-8.12-17.07-25.09v-39.69c0-12.95,1.64-22.72,5.65-28.38s11.31-11.31,22.72-17.07c28.38-14.6,62.41-26.73,102.09-36.5,39.69-10.49,81.84-15.42,126.46-15.42,96.44,0,166.97,21.9,212.41,65.7,44.62,43.8,67.24,110.21,67.24,199.45v262.68h1.75Zm-329.1,123.27c26.73,0,54.28-4.83,83.48-14.6,29.2-9.77,55.11-27.55,77.01-51.92,12.95-15.42,22.72-32.39,27.55-51.92,4.83-19.43,8.12-42.98,8.12-70.53v-34.03c-23.54-5.65-48.63-10.49-74.54-13.78-25.91-3.29-51.1-4.83-76.18-4.83-54.28,0-94.07,10.49-120.8,32.39s-39.69,52.64-39.69,93.25c0,38.14,9.77,66.52,30.02,85.95,19.43,20.25,47.81,30.02,85.02,30.02h0Zm650.9,87.49c-14.6,0-24.37-2.47-30.84-8.12-6.48-4.83-12.13-16.24-17.07-31.56L801.64,77.49c-4.83-16.24-7.3-26.73-7.3-32.39,0-12.95,6.48-20.25,19.43-20.25h79.47c15.42,0,25.91,2.47,31.56,8.12,6.48,4.83,11.31,16.24,16.24,31.56l136.23,536.57,126.46-536.57c4.01-16.24,8.94-26.73,15.42-31.56s17.79-8.12,32.39-8.12h64.87c15.42,0,25.91,2.47,32.39,8.12,6.48,4.83,12.13,16.24,15.42,31.56l128.1,543.05,140.23-543.05c4.83-16.24,10.49-26.73,16.24-31.56,6.48-4.83,17.07-8.12,31.56-8.12h75.36c12.95,0,20.25,6.48,20.25,20.25,0,4.01-.82,8.12-1.64,12.95-.82,4.83-2.47,11.31-5.65,20.25l-195.34,626.64c-4.83,16.24-10.49,26.73-17.07,31.56-6.48,4.83-17.07,8.12-30.84,8.12h-69.71c-15.42,0-25.91-2.47-32.39-8.12-6.48-5.65-12.13-16.24-15.42-32.39l-125.64-522.8-124.81,521.97c-4.01,16.24-8.94,26.73-15.42,32.39s-17.79,8.12-32.39,8.12h-69.71Zm1041.68,21.9c-42.15,0-84.31-4.83-124.81-14.6s-72.17-20.25-93.25-32.39c-12.95-7.3-21.9-15.42-25.09-22.72-3.29-7.3-4.83-15.42-4.83-22.72v-41.33c0-17.07,6.48-25.09,18.61-25.09,4.83,0,9.77.82,14.6,2.47,4.83,1.64,12.13,4.83,20.25,8.12,27.55,12.13,57.57,21.9,89.14,28.38,32.39,6.48,64.05,9.77,96.44,9.77,51.1,0,90.78-8.94,118.34-26.73s42.15-43.8,42.15-77.01c0-22.72-7.3-41.33-21.9-56.75-14.6-15.42-42.15-29.2-81.84-42.15l-117.51-36.6c-59.22-18.61-102.91-46.16-129.65-82.66-26.73-35.68-40.51-75.36-40.51-117.51,0-34.03,7.3-64.05,21.9-89.96,14.6-25.91,34.03-48.63,58.4-66.52,24.37-18.61,51.92-32.39,84.31-42.15,32.39-9.77,66.52-13.78,102.09-13.78,17.79,0,36.5.82,54.28,3.29,18.61,2.47,35.68,5.65,52.64,8.94,16.24,4.01,31.56,8.12,46.16,12.95,14.6,4.83,25.91,9.77,34.03,14.6,11.31,6.48,19.43,12.95,24.37,20.25,4.83,6.48,7.3,15.42,7.3,26.73v38.14c0,17.07-6.48,25.91-18.61,25.91-6.48,0-17.07-3.29-30.84-9.77-46.16-21.08-98.08-31.56-155.66-31.56-46.16,0-82.66,7.3-107.85,22.72-25.09,15.42-38.14,38.86-38.14,72.17,0,22.72,8.12,42.15,24.37,57.57,16.24,15.42,46.16,30.84,89.14,44.62l115.15,36.5c58.4,18.61,100.55,44.62,125.64,77.83,25.09,33.21,37.32,71.35,37.32,113.5,0,34.85-7.3,66.52-21.08,94.07-14.6,27.55-34.03,51.92-59.22,71.35-25.09,20.25-55.11,34.85-89.96,45.44-36.5,11-74.54,16.66-115.87,16.66h0Z"/>
  <g>
    <path class="cls-2" d="m2234.83,1159.68c-266.69,196.99-654.19,301.55-987.3,301.55-466.87,0-887.57-172.62-1205.36-459.57-25.09-22.72-2.47-53.46,27.55-35.68,343.7,199.45,767.59,320.15,1206.18,320.15,295.89,0,620.88-61.58,920.06-188.04,44.52-20.25,82.66,29.2,38.86,61.58Z"/>
    <path class="cls-2" d="m2345.87,1033.22c-34.03-43.8-225.36-21.08-312.03-10.49-25.91,3.29-30.02-19.43-6.48-36.5,152.37-107.03,402.82-76.18,432.01-40.51,29.2,36.5-8.12,286.95-150.72,406.93-21.9,18.61-42.98,8.94-33.21-15.42,32.28-80.3,104.46-261.04,70.43-304.01Z"/>
  </g>
</svg>