<?xml version="1.0" encoding="UTF-8"?>
<svg id="Layer_1" data-name="Layer 1" xmlns="http://www.w3.org/2000/svg" viewBox="0 0 2500 1465">
  <defs>
    <style>
      .cls-1 {
        fill: #f9ab00;
      }

      .cls-2 {
        fill: #e8710a;
      }
    </style>
  </defs>
  <path class="cls-2" d="m484.19,471.79l-241.28-242.09c-277.07,277.72-277.07,727.26,0,1004.82l242.26-242.26c-143.66-143.5-144.15-376.32-.98-520.47Z"/>
  <path class="cls-1" d="m242.91,229.69l241.28,242.26c143.82-143.99,377.13-144.15,521.12-.33q.16.16.33.33l175.55-300.66h0l-10.25-8.13h0C887.85-48.19,492.82-19.88,242.91,229.69Z"/>
  <path class="cls-1" d="m1182,1292.92h0l-176.53-299.69c-143.82,143.99-377.13,144.15-521.12.33l-.33-.33-241.12,242.26c249.25,247.14,641.51,275.45,923.79,66.71l11.23-9.27"/>
  <path class="cls-1" d="m1249.85,229.69c-277.07,277.72-277.07,727.26,0,1004.82l242.26-242.26c-143.99-143.99-143.99-377.46,0-521.44,143.99-143.99,377.46-143.99,521.44,0l243.23-241.28c-277.56-278.05-727.91-278.54-1005.96-.98-.33.49-.65.81-.98,1.14Z"/>
  <path class="cls-2" d="m2256.78,229.69l-241.28,242.26c143.99,143.99,143.99,377.46,0,521.44s-377.46,143.99-521.44,0h0l-244.21,242.26c277.72,278.05,728.4,278.21,1006.44.49,277.89-277.89,278.21-728.4.49-1006.44h0Z"/>
</svg>