<?xml version="1.0" encoding="UTF-8"?>
<svg id="Layer_1" data-name="Layer 1" xmlns="http://www.w3.org/2000/svg" viewBox="0 0 2500 1333.48">
  <defs>
    <style>
      .cls-1 {
        fill: #77b900;
      }
    </style>
  </defs>
  <path d="m2468.4,1256.38c0,26.56-19.47,44.35-42.55,44.35v-.13c-23.72.13-42.81-17.66-42.81-44.09s19.08-44.22,42.81-44.22c23.08-.13,42.55,17.53,42.55,44.09h0Zm17.15,0c0-36.36-28.24-57.5-59.82-57.5s-59.95,21.14-59.95,57.5,28.24,57.63,59.95,57.63c31.59-.13,59.82-21.27,59.82-57.63m-69.62,4.9h6.45l14.83,26.04h16.25l-16.37-27.08c8.51-.64,15.47-4.64,15.47-16.12,0-14.18-9.8-18.7-26.43-18.7h-23.98v62.02h13.8v-26.17m0-10.57v-14.96h9.54c5.16,0,12.38.39,12.38,6.83,0,6.96-3.74,8.12-9.8,8.12h-12.12m-332.77-311.37l74.52,203.84h-151.37l76.84-203.84h0Zm-79.81-79.29l-171.74,435.14h121.2l27.2-76.84h203.2l25.66,76.84h131.64l-172.9-435.27-164.26.13h0Zm-344.76,435.14h123v-435.27h-123v435.27Zm-854.04-435.4l-102.63,345.02-98.37-344.89h-132.8l140.41,435.4h177.28l141.57-435.4h-125.45v-.13Zm497.29,94.89h52.86c76.71,0,126.35,34.42,126.35,123.77s-49.64,123.77-126.35,123.77h-52.86v-247.55h0Zm-122.1-94.89v435.4h199.46c106.24,0,140.92-17.66,178.44-57.25,26.56-27.85,43.58-88.83,43.58-155.62,0-61.24-14.57-115.78-39.84-149.82-45.51-60.86-111.27-72.72-209.13-72.72h-172.51Zm-1165.28-.52v436.05h124.03v-331.1h96.18c31.85,0,54.54,7.99,69.88,24.37,19.47,20.76,27.33,54.15,27.33,115.26v191.46h120.16v-240.84c0-171.99-109.59-195.07-216.86-195.07H14.45v-.13Zm967.37.52v435.4h123v-435.4h-123Z"/>
  <path class="cls-1" d="m678.15,356.95s104.91-154.84,314.48-170.83v-56.18c-232.05,18.64-432.98,215.21-432.98,215.21,0,0,113.8,329.01,432.98,359.2v-59.68c-234.28-29.5-314.48-287.72-314.48-287.72Zm314.48,168.95v54.72c-177.08-31.55-226.15-215.64-226.15-215.64,0,0,84.99-94.14,226.15-109.44v59.94h-.26c-74.13-8.89-132.02,60.36-132.02,60.36,0,0,32.41,116.45,132.27,150.06m0-499.51v103.54c6.84-.51,13.59-.94,20.44-1.2,263.86-8.89,435.72,216.41,435.72,216.41,0,0-197.43,240.09-403.14,240.09-18.81,0-36.51-1.71-53.1-4.7v64.04c14.62,1.88,29.41,2.82,44.2,2.82,191.44,0,329.87-97.73,463.85-213.41,22.23,17.78,113.21,61.13,131.93,80.03-127.4,106.71-424.43,192.72-592.79,192.72-16.25,0-31.81-1.03-47.11-2.48v90.03h727.54V26.39h-727.54Zm0,229.15v-69.34c6.75-.51,13.51-.86,20.44-1.03,189.73-5.99,314.22,163.05,314.22,163.05,0,0-134.5,186.57-278.57,186.57-20.78,0-39.33-3.33-56.09-8.98v-210.34c73.87,8.89,88.75,41.55,133.13,115.6l98.76-83.28s-72.08-94.57-193.58-94.57c-13.25,0-25.91.94-38.31,2.31"/>
</svg>