<?xml version="1.0" encoding="UTF-8"?>
<svg id="Layer_1" data-name="Layer 1" xmlns="http://www.w3.org/2000/svg" viewBox="0 0 2500 1465">
  <defs>
    <style>
      .cls-1 {
        fill: #0f0f0f;
      }
    </style>
  </defs>
  <path class="cls-1" d="m1091.42,969.97v.23c-1.72,0-3.45.23-5.17.23s-3.45-.23-5.17-.23c-101.66,0-164.61,63.52-164.61,165.53v50.08c0,98.22,63.75,159.21,166.11,159.21,2.07,0,4.14,0,6.32-.23,1.38,0,2.53.23,4.02.23,68.69,0,116.48-25.04,146.92-76.96l-60.65-35.04c-20.22,29.87-47.33,52.38-86.04,52.38-51.81,0-82.94-31.93-82.94-85.69v-14.13h240.43v-59.27c0-95.11-62.38-156.34-159.21-156.34h0Zm-5.17,58.36c47.33,2.3,75.82,33.66,75.82,85.12v14.24h-152.09v-8.27c0-56.86,27-88.8,76.28-91.09h0Zm-373.45-58.13c-45.26,0-84.32,18.84-104.76,50.08l-5.17,7.93v-49.4h-86.04v481.09h90.29v-168.06l5.17,7.7c19.41,28.72,57.21,45.83,101.43,45.83h4.25c74.32,0,149.22-48.48,149.22-156.92v-61c0-78-46.18-156.92-149.79-156.92l-.57-.23h-1.95l-2.07-.11Zm-21.02,67.89c52.38.8,84.89,36.41,84.89,93.39v52.38c0,56.98-32.74,92.24-85.69,93.39-49.28-.8-83.74-38.48-83.74-92.01v-53.88c-.11-53.99,34.69-92.24,84.55-93.28h0Zm1170.09-186.67l-173.8,485.34h97.76l33.31-103.96h189.65v1.15l33.31,103.16h97.76l-174.03-485.34h-10.22l-.23-.23-93.51-.11Zm51.92,83.51l72.6,229.29h-145.89l73.29-229.29Zm575.63-15.05v-68.35h-297.98v68.35h104.53v348.06h-104.53v68.35h297.98v-68.35h-104.53v-348.06h104.53Zm-980.44,50.43h-3.91c-50.43,0-86.27,17.12-103.96,49.85l-5.4,9.99v-51.35h-86.04v357.71h90.29v-212.97c0-50.08,27.11-78.92,73.75-79.72,44.69.8,70.42,29.06,70.42,77.77v215.04h90.29v-230.43c0-85.12-46.75-135.89-125.1-135.89h-.34ZM226.54,841.55c-133.02,0-215.96,82.94-215.96,216.53v72.03c0,133.6,82.59,216.53,215.96,216.53h3.91c133.02,0,215.96-82.94,215.96-216.53v-72.03c0-133.6-82.94-216.53-215.96-216.53h-3.91Zm2.07,72.37c79.15.8,124.75,51.58,124.75,139.34v82.02c0,87.76-45.6,138.42-124.75,139.34-79.15-.8-124.75-51.58-124.75-139.34v-82.02c0-87.88,45.49-138.54,124.75-139.34ZM1150.34,13.39c-89.55,0-169.14,57.69-196.87,142.76-57.57,11.85-107.21,47.96-136.39,98.94-44.94,77.58-34.66,175.18,25.49,241.7-18.56,55.67-12.19,116.71,17.44,167.13,44.61,77.92,134.49,117.83,222.36,99.27,38.9,43.93,94.91,68.98,153.6,68.75,89.55,0,169.14-57.68,196.87-142.76,57.68-11.96,107.32-47.96,136.16-98.94,45.16-77.58,34.88-175.18-25.27-241.7v-.22c18.56-55.67,12.19-116.71-17.44-167.47-44.61-77.58-134.49-117.49-222.02-98.94-39.24-43.93-95.25-68.86-153.94-68.53Zm0,53.21l-.22.22c36,0,70.65,12.52,98.38,35.44-1.12.56-3.35,1.9-5.03,2.79l-162.99,94.02c-8.27,4.7-13.3,13.64-13.3,23.25v220.68l-70.09-40.47v-182.33c-.11-84.74,68.53-153.49,153.27-153.6h0Zm196.31,64.28c55-.11,105.87,29.18,133.26,76.91,17.78,31.08,24.37,67.41,18.33,102.51-1.12-.78-3.35-1.9-4.7-2.79l-162.99-94.24c-8.38-4.7-18.56-4.7-26.83,0l-191.05,110.34v-80.94l157.74-91.22c23.14-13.42,49.52-20.57,76.24-20.57h0Zm-403.12,83.73v193.74c0,9.73,5.03,18.33,13.3,23.25l190.72,110-70.43,40.69-157.4-90.89c-73.22-42.48-98.27-136.28-56.01-209.61,17.89-30.85,46.17-54.67,79.82-67.19h0Zm365.34,47.96l157.74,90.89c73.45,42.37,98.38,136.16,56.01,209.61l.22.22c-18,31.08-46.28,54.89-79.82,67.08v-193.74c0-9.73-5.03-18.56-13.3-23.25l-190.94-110.34,70.09-40.47Zm-115.82,66.85l80.38,46.62v92.9l-80.38,46.62-80.38-46.62v-92.9l80.38-46.62Zm126.44,73.22l70.09,40.47v182.11c0,84.85-68.75,153.6-153.27,153.6v-.22c-35.77,0-70.65-12.52-98.15-35.44,1.12-.56,3.58-1.9,5.03-2.79l162.99-94.02c8.27-4.7,13.64-13.64,13.3-23.25v-220.46Zm-45.83,119.17v80.94l-157.74,90.89c-73.45,42.15-167.13,17.22-209.61-56.01h.22c-18-30.74-24.37-67.41-18.33-102.51,1.12.78,3.35,1.9,4.7,2.79l162.99,94.24c8.38,4.7,18.56,4.7,26.83,0l190.94-110.34Z"/>
</svg>