<?xml version="1.0" encoding="UTF-8"?>
<svg id="Layer_1" data-name="Layer 1" xmlns="http://www.w3.org/2000/svg" viewBox="0 0 2500 755.55">
  <defs>
    <style>
      .cls-1 {
        fill: #232e4a;
      }
    </style>
  </defs>
  <g id="g10">
    <g id="g12">
      <path id="path14" class="cls-1" d="m186.72,138.83c0,39.59-31.06,71.68-69.36,71.68s-69.36-32.09-69.36-71.68,31.06-71.68,69.36-71.68c38.31,0,69.36,32.1,69.36,71.68"/>
      <path id="path16" class="cls-1" d="m186.72,383.1c0,39.59-31.06,71.68-69.36,71.68s-69.36-32.09-69.36-71.68,31.06-71.68,69.36-71.68c38.31,0,69.36,32.1,69.36,71.68"/>
      <path id="path18" class="cls-1" d="m186.72,627.36c0,39.58-31.06,71.68-69.36,71.68s-69.36-32.1-69.36-71.68,31.06-71.68,69.36-71.68c38.31,0,69.36,32.1,69.36,71.68"/>
      <path id="path20" class="cls-1" d="m428.76,383.1c0,39.59-31.06,71.68-69.36,71.68s-69.36-32.09-69.36-71.68,31.06-71.68,69.36-71.68c38.31,0,69.36,32.1,69.36,71.68"/>
      <path id="path22" class="cls-1" d="m428.76,138.83c0,39.59-31.06,71.68-69.36,71.68s-69.36-32.09-69.36-71.68,31.06-71.68,69.36-71.68c38.31,0,69.36,32.1,69.36,71.68"/>
      <path id="path24" class="cls-1" d="m670.79,383.1c0,39.59-31.06,71.68-69.36,71.68s-69.36-32.09-69.36-71.68,31.06-71.68,69.36-71.68c38.31,0,69.36,32.1,69.36,71.68"/>
      <path id="path26" class="cls-1" d="m670.79,138.83c0,39.59-31.06,71.68-69.36,71.68s-69.36-32.09-69.36-71.68,31.06-71.68,69.36-71.68c38.31,0,69.36,32.1,69.36,71.68"/>
      <path id="path28" class="cls-1" d="m670.79,627.36c0,39.58-31.06,71.68-69.36,71.68s-69.36-32.1-69.36-71.68,31.06-71.68,69.36-71.68c38.31,0,69.36,32.1,69.36,71.68"/>
      <path id="path30" class="cls-1" d="m428.76,627.36c0,39.58-31.06,71.68-69.36,71.68s-69.36-32.1-69.36-71.68,31.06-71.68,69.36-71.68c38.31,0,69.36,32.1,69.36,71.68"/>
      <path id="path32" class="cls-1" d="m1138,157.64h-177.3v202.1h177.3c60.84,0,103.43-32.34,103.43-100.6s-41.72-101.5-103.43-101.5Zm61.71,282.94l124.29,256.89h-105.16l-120.81-248.8h-137.33v248.8h-89.52V68.71h266.82c106.04,0,195.56,58.39,195.56,187.73,0,100.6-51.27,162.57-133.84,184.14"/>
      <path id="path34" class="cls-1" d="m1702.97,153.15c-106.04,0-164.27,88.92-164.27,229.94s58.23,229.94,164.27,229.94,165.14-88.92,165.14-229.94-58.23-229.94-165.14-229.94Zm0,554.2c-157.31,0-257.27-133.84-257.27-324.26s99.95-324.25,257.27-324.25,258.13,133.83,258.13,324.25-99.95,324.26-258.13,324.26"/>
      <path id="path36" class="cls-1" d="m2274.89,707.35c-88.66,0-165.14-39.52-216.42-101.5l65.19-65.57c40.85,45.81,100.82,74.55,158.18,74.55,85.17,0,126.03-30.54,126.03-91.62,0-48.5-35.62-72.76-137.33-104.2-128.63-39.52-190.34-72.75-190.34-185.03s88.65-175.15,200.77-175.15c82.57,0,145.15,31.44,199.03,85.33l-64.31,67.37c-38.24-40.42-81.7-60.18-141.66-60.18-71.28,0-101.7,35.93-101.7,78.15s27.81,65.57,132.98,97.91c119.93,37.73,194.69,77.25,194.69,189.53,0,113.18-69.53,190.42-225.11,190.42"/>
    </g>
  </g>
</svg>