<svg width="28" height="21" viewBox="0 0 28 21" fill="none" xmlns="http://www.w3.org/2000/svg">
<path fill-rule="evenodd" clip-rule="evenodd" d="M17.3622 0.0491645L27.9491 10.2755C28.017 10.4066 28.017 10.5486 27.9491 10.6797L17.3508 20.8405C17.283 20.9716 17.0681 20.9716 16.9323 20.8405L15.8578 19.8026C15.7221 19.6714 15.7221 19.4639 15.8578 19.3218L23.9111 11.4773L1.18764 11.4773C0.565544 11.4773 -4.67936e-07 11.0075 -4.41926e-07 10.3957C-4.1313e-07 9.71827 0.554233 9.24847 1.18764 9.24847L23.7075 9.24848L15.8578 1.62244C15.7221 1.49134 15.7221 1.28375 15.8578 1.15264L16.9436 0.0491645C17.0794 -0.0163888 17.2943 -0.0163888 17.3622 0.0491645Z" fill="black"/>
</svg>
