<svg width="13" height="13" viewBox="0 0 13 13" fill="none" xmlns="http://www.w3.org/2000/svg">
<path d="M6.33 12.6597C2.83389 12.6597 0 9.82584 0 6.33C0 2.83416 2.83389 0 6.33 0C9.82611 0 12.66 2.83389 12.66 6.33C12.656 9.82422 9.82449 12.656 6.33 12.66V12.6597ZM5.5135 9.67559L8.23059 7.73454C9.00637 7.18022 9.18602 6.10207 8.63197 5.3263C8.52137 5.1712 8.38569 5.03579 8.23059 4.92492L5.5135 2.98414C5.25482 2.79937 4.89525 2.85952 4.71075 3.1182C4.52598 3.37688 4.58613 3.73645 4.84481 3.92095L7.56191 5.86146C7.82059 6.04677 7.87993 6.40661 7.69462 6.66529C7.65793 6.71654 7.61316 6.76132 7.56191 6.798L4.84481 8.73878C4.58613 8.92356 4.52598 9.28285 4.71075 9.54153C4.89552 9.80021 5.25482 9.86037 5.5135 9.67559Z" fill="black"/>
</svg>
