<svg width="17" height="15" viewBox="0 0 17 15" fill="none" xmlns="http://www.w3.org/2000/svg">
<path fill-rule="evenodd" clip-rule="evenodd" d="M4.75337 0.346527L15.9271 0.339555C16.0323 0.373412 16.1051 0.446865 16.1343 0.548615L15.4041 11.1047C15.4333 11.2064 15.3129 11.3139 15.1696 11.314L14.0355 11.3147C13.8923 11.3148 13.7859 11.2075 13.7891 11.0661L14.2806 2.9809L1.54837 14.3473C1.1998 14.6585 0.642119 14.6984 0.328511 14.382C-0.0186969 14.0317 0.0510395 13.5115 0.405943 13.1946L13.0241 1.93008L4.71689 1.91265C4.57364 1.91274 4.46723 1.80538 4.47608 1.66968L4.51888 0.555863C4.56133 0.454068 4.68174 0.346571 4.75337 0.346527Z" fill="#0A0000"/>
</svg>
