<svg width="72" height="72" viewBox="0 0 72 72" fill="none" xmlns="http://www.w3.org/2000/svg">
<path d="M65.0105 26.8552C65.5621 28.6374 65.9646 30.4568 66.2181 32.2987C66.1883 32.0526 66.151 31.8065 66.1212 31.553C66.5088 34.5134 66.5163 37.511 66.1212 40.4714C66.151 40.2253 66.1883 39.9793 66.2181 39.7257C65.823 42.6265 65.0552 45.4601 63.9221 48.152C64.019 47.9283 64.1085 47.7046 64.2054 47.4809C63.0947 50.1132 61.6485 52.5888 59.9042 54.8557C60.0533 54.6693 60.1949 54.4754 60.344 54.289C58.5922 56.5634 56.5497 58.5991 54.2761 60.3589C54.4625 60.2098 54.6563 60.0681 54.8427 59.919C52.5765 61.6564 50.1017 63.103 47.4703 64.2216C47.6939 64.1246 47.9176 64.0352 48.1412 63.9382C45.4427 65.0717 42.61 65.8397 39.7177 66.2349C39.9637 66.2051 40.2097 66.1678 40.4632 66.138C37.5038 66.5332 34.5071 66.5332 31.5552 66.138C31.8012 66.1678 32.0471 66.2051 32.3006 66.2349C29.4008 65.8397 26.5682 65.0717 23.8771 63.9382C24.1008 64.0352 24.3244 64.1246 24.548 64.2216C21.9166 63.1105 19.4418 61.6639 17.1756 59.919C17.362 60.0681 17.5558 60.2098 17.7422 60.3589C15.4686 58.6065 13.4335 56.5634 11.6743 54.289C11.8234 54.4754 11.965 54.6693 12.1141 54.8557C10.3772 52.5888 8.93107 50.1132 7.81291 47.4809C7.90982 47.7046 7.99927 47.9283 8.09618 48.152C6.96311 45.4526 6.19531 42.619 5.80022 39.7257C5.83004 39.9718 5.86731 40.2179 5.89713 40.4714C5.50205 37.511 5.50205 34.5134 5.89713 31.5605C5.86731 31.8065 5.83004 32.0526 5.80022 32.3061C6.19531 29.4054 6.96311 26.5718 8.09618 23.8799C7.99927 24.1036 7.90982 24.3273 7.81291 24.551C8.92361 21.9187 10.3698 19.443 12.1141 17.1761C11.965 17.3626 11.8234 17.5564 11.6743 17.7429C13.4261 15.4685 15.4686 13.4328 17.7422 11.673C17.5558 11.8221 17.362 11.9638 17.1756 12.1129C19.4418 10.3755 21.9166 8.92883 24.548 7.8103C24.3244 7.90724 24.1008 7.99672 23.8771 8.09366C26.5756 6.96022 29.4083 6.19216 32.3006 5.79694C32.0546 5.82677 31.8086 5.86406 31.5552 5.89388C34.5145 5.49867 37.5187 5.50613 40.4781 5.89388C40.2321 5.86406 39.9861 5.82677 39.7326 5.79694C41.4471 6.02811 43.1393 6.3935 44.8016 6.89311C46.203 7.31069 47.9101 6.3935 48.2381 4.9394C48.5735 3.42566 47.7834 1.93428 46.2776 1.48687C39.5463 -0.511573 32.1739 -0.504116 25.4649 1.56144C19.7698 3.32126 14.5144 6.49789 10.3325 10.7483C6.15058 15.0062 3.0421 20.308 1.38722 26.0424C-0.327289 31.993 -0.439105 38.3835 0.97723 44.4087C2.35629 50.2399 5.27096 55.6611 9.25906 60.1278C13.2397 64.5721 18.346 67.9202 23.9442 69.9485C29.8034 72.0737 36.1769 72.4913 42.3044 71.4622C45.2936 70.9551 48.1561 70.0081 50.9217 68.7777C53.6574 67.5548 56.1472 65.9516 58.4953 64.1023C62.9605 60.5901 66.6057 55.8773 68.8719 50.6724C70.0944 47.8612 71.0262 44.9605 71.5033 41.9181C71.7567 40.2775 71.9431 38.6147 71.9878 36.9518C72.0474 34.8862 71.8834 32.843 71.6076 30.8073C71.3542 28.958 70.9516 27.146 70.4 25.3638C70.1913 24.6778 69.744 24.0588 69.1179 23.6934C68.5215 23.343 67.6344 23.1938 66.9635 23.4101C65.5546 23.865 64.5483 25.3563 65.0105 26.8552Z" fill="#0089E2"/>
<path d="M55.381 33.8679C55.5352 35.5642 55.5058 37.2677 55.2855 38.9566C55.3149 38.7143 55.3516 38.472 55.381 38.2223C55.1166 40.1902 54.5878 42.1141 53.8167 43.9424C53.9122 43.7222 54.0003 43.5019 54.0958 43.2816C53.3467 45.0365 52.3773 46.6887 51.2096 48.2014C51.3565 48.0178 51.496 47.8269 51.6429 47.6433C50.4825 49.1412 49.1312 50.485 47.633 51.6525C47.8166 51.5057 48.0076 51.3662 48.1912 51.2193C46.6783 52.3868 45.0259 53.3561 43.2707 54.1051C43.491 54.0096 43.7113 53.9215 43.9317 53.826C42.103 54.597 40.1789 55.1257 38.2107 55.3901C38.453 55.3607 38.6954 55.324 38.9451 55.2946C36.9769 55.5516 34.9867 55.5516 33.0258 55.2946C33.2682 55.324 33.5105 55.3607 33.7602 55.3901C31.792 55.1257 29.8679 54.597 28.0393 53.826C28.2596 53.9215 28.4799 54.0096 28.7002 54.1051C26.945 53.3561 25.2926 52.3868 23.7797 51.2193C23.9633 51.3662 24.1543 51.5057 24.3379 51.6525C22.8397 50.4924 21.4957 49.1412 20.3281 47.6433C20.4749 47.8269 20.6145 48.0178 20.7613 48.2014C19.5937 46.6887 18.6242 45.0365 17.8752 43.2816C17.9706 43.5019 18.0588 43.7222 18.1542 43.9424C17.3831 42.1141 16.8543 40.1902 16.59 38.2223C16.6193 38.4646 16.6561 38.7069 16.6854 38.9566C16.4284 36.9887 16.4284 34.9987 16.6854 33.0382C16.6561 33.2805 16.6193 33.5228 16.59 33.7725C16.8543 31.8046 17.3831 29.8807 18.1542 28.0523C18.0588 28.2726 17.9706 28.4929 17.8752 28.7132C18.6242 26.9582 19.5937 25.3061 20.7613 23.7934C20.6145 23.977 20.4749 24.1679 20.3281 24.3515C21.4884 22.8535 22.8397 21.5098 24.3379 20.3422C24.1543 20.4891 23.9633 20.6286 23.7797 20.7755C25.2926 19.6079 26.945 18.6387 28.7002 17.8897C28.4799 17.9852 28.2596 18.0733 28.0393 18.1687C29.8679 17.3977 31.792 16.869 33.7602 16.6047C33.5179 16.6341 33.2755 16.6708 33.0258 16.7001C34.6415 16.4872 36.2792 16.4505 37.9022 16.5827C38.5706 16.6341 39.3931 16.2375 39.8484 15.7749C40.3258 15.2976 40.6856 14.5119 40.6562 13.8291C40.6269 13.1168 40.3919 12.3752 39.8484 11.8832C39.2829 11.3692 38.666 11.1415 37.9022 11.0755C35.677 10.8919 33.4444 11.0534 31.2486 11.4499C29.2877 11.8097 27.4224 12.4559 25.601 13.2636C22.2448 14.7469 19.1824 17.0893 16.8543 19.9164C14.35 22.9637 12.4847 26.5103 11.6254 30.3727C10.7294 34.3673 10.7882 38.5674 11.8531 42.5253C12.8812 46.3436 14.8494 49.8609 17.4859 52.798C20.1151 55.7279 23.4346 57.9014 27.0772 59.3406C30.639 60.7504 34.6489 61.2791 38.453 60.8606C42.4188 60.4273 46.2671 59.1644 49.6159 56.9615C52.8693 54.8173 55.638 51.9536 57.6062 48.5832C59.6331 45.1173 60.7641 41.1815 60.9697 37.1796C61.0285 36.0782 60.9991 34.9694 60.9037 33.8679C60.8376 33.1263 60.6393 32.4654 60.0958 31.9221C59.6185 31.4448 58.8326 31.085 58.1497 31.1143C57.4373 31.1437 56.6955 31.3787 56.2035 31.9221C55.7188 32.4361 55.3149 33.1557 55.381 33.8679Z" fill="#0089E2"/>
<path d="M44.3532 35.9897C44.3532 36.4793 44.3231 36.969 44.2553 37.4587C44.2854 37.2101 44.3231 36.9615 44.3532 36.7053C44.2177 37.6847 43.9617 38.6339 43.5928 39.5455C43.6907 39.3194 43.781 39.0934 43.8789 38.8674C43.5024 39.7564 43.0206 40.5851 42.4408 41.3535C42.5914 41.1651 42.7345 40.9693 42.885 40.7809C42.2827 41.5644 41.5825 42.265 40.7995 42.8677C40.9877 42.717 41.1835 42.5739 41.3717 42.4232C40.6038 43.0033 39.7756 43.4854 38.8871 43.8621C39.113 43.7642 39.3389 43.6738 39.5647 43.5759C38.6537 43.9525 37.7051 44.2087 36.7263 44.3367C36.9748 44.3066 37.2232 44.2689 37.4792 44.2388C36.5004 44.3593 35.5217 44.3593 34.5504 44.2388C34.7989 44.2689 35.0473 44.3066 35.3033 44.3367C34.3245 44.2011 33.3759 43.945 32.4649 43.5759C32.6908 43.6738 32.9166 43.7642 33.1425 43.8621C32.2541 43.4854 31.4259 43.0033 30.6579 42.4232C30.8461 42.5739 31.0419 42.717 31.2301 42.8677C30.4471 42.265 29.7469 41.5644 29.1446 40.7809C29.2952 40.9693 29.4382 41.1651 29.5888 41.3535C29.0091 40.5851 28.5272 39.7564 28.1508 38.8674C28.2486 39.0934 28.339 39.3194 28.4369 39.5455C28.0604 38.6339 27.8044 37.6847 27.6764 36.7053C27.7065 36.9539 27.7442 37.2025 27.7743 37.4587C27.6538 36.4793 27.6538 35.5 27.7743 34.5282C27.7442 34.7768 27.7065 35.0254 27.6764 35.2815C27.8119 34.3022 28.0679 33.353 28.4369 32.4414C28.339 32.6674 28.2486 32.8934 28.1508 33.1194C28.5272 32.2305 29.0091 31.4018 29.5888 30.6334C29.4382 30.8217 29.2952 31.0176 29.1446 31.2059C29.7469 30.4224 30.4471 29.7218 31.2301 29.1191C31.0419 29.2698 30.8461 29.413 30.6579 29.5636C31.4259 28.9835 32.2541 28.5014 33.1425 28.1247C32.9166 28.2227 32.6908 28.3131 32.4649 28.411C33.3759 28.0343 34.3245 27.7782 35.3033 27.6501C35.0549 27.6803 34.8064 27.7179 34.5504 27.7481C35.0398 27.6878 35.5217 27.6577 36.0186 27.6501C37.4943 27.6426 38.9097 26.3544 38.842 24.8251C38.7742 23.3033 37.5997 21.9925 36.0186 22C31.6593 22.0226 27.5785 24.0642 24.9208 27.4995C22.2254 30.9422 21.3219 35.5979 22.519 39.8091C23.1138 41.9034 24.2055 43.8094 25.6511 45.4291C27.1042 47.0563 28.9413 48.2165 30.9365 49.0376C34.8516 50.6498 39.5798 50.1902 43.1862 48.0055C45.0383 46.8906 46.5818 45.3613 47.7714 43.5608C49.0061 41.685 49.6536 39.553 49.9172 37.3457C49.9699 36.8937 50 36.4417 50 35.9821C50.0075 34.5056 48.6974 33.0893 47.1766 33.1571C45.6407 33.2324 44.3607 34.4076 44.3532 35.9897Z" fill="#0089E2"/>
<path d="M67.2839 8.86599C65.7667 10.3847 64.2495 11.9035 62.7396 13.4148C60.3459 15.8109 57.9448 18.2144 55.5511 20.6104C54.9987 21.1634 54.4389 21.7237 53.8865 22.2766C54.5347 22.0038 55.1902 21.7384 55.8383 21.4656C53.5035 21.4509 51.1688 21.4288 48.834 21.414C48.5025 21.414 48.1711 21.4067 47.8323 21.4067L50.5943 24.1714C50.5795 21.8343 50.5574 19.4972 50.5427 17.1601C50.5427 16.8283 50.5353 16.4966 50.5353 16.1574C50.2628 16.8062 49.9977 17.4624 49.7252 18.1111C51.2424 16.5924 52.7597 15.0737 54.2695 13.5623C56.6632 11.1662 59.0643 8.76278 61.458 6.3667C62.0104 5.81377 62.5702 5.25345 63.1226 4.70051C61.5538 4.05173 59.9776 3.39558 58.4088 2.74679C58.4235 5.08389 58.4456 7.42098 58.4604 9.75807C58.4604 10.0898 58.4677 10.4216 58.4677 10.7607C58.4751 12.2647 59.7272 13.5181 61.2297 13.5254C63.5645 13.5402 65.8993 13.5623 68.2341 13.577C68.5655 13.577 68.8969 13.5844 69.2357 13.5844C70.6793 13.5918 72.064 12.309 71.9977 10.8197C71.9314 9.31572 70.7824 8.06976 69.2357 8.05501C66.901 8.04027 64.5662 8.01815 62.2314 8.00341C61.8999 8.00341 61.5685 7.99603 61.2297 7.99603L63.9917 10.7607C63.9769 8.42364 63.9548 6.08655 63.9401 3.74946C63.9401 3.41769 63.9328 3.08593 63.9328 2.74679C63.9254 1.64091 63.2478 0.645623 62.2314 0.218016C61.2223 -0.20959 60.0071 -0.00315966 59.2116 0.793073C58.3573 1.64829 57.5029 2.5035 56.6485 3.35871L51.3455 8.66693C49.8209 10.193 48.2963 11.7192 46.7643 13.2526C46.455 13.5623 46.1309 13.8646 45.8289 14.189C44.8862 15.199 44.9967 16.268 45.0114 17.4845C45.0261 19.6594 45.0409 21.8416 45.0556 24.0165V24.1714C45.063 25.6754 46.315 26.9287 47.8176 26.9361C49.7767 26.9508 51.7359 26.9655 53.7024 26.9803C54.4095 26.9877 55.1165 27.0098 55.8162 26.995C57.0241 26.9729 57.6428 26.3168 58.3793 25.5795C59.7935 24.164 61.2076 22.7485 62.6217 21.3329C64.4336 19.5193 66.2381 17.713 68.0499 15.8994C69.0737 14.8746 70.1196 13.8646 71.1286 12.8177C71.1433 12.8029 71.1581 12.7882 71.1802 12.7661C72.2039 11.7413 72.2776 9.86866 71.1802 8.85862C70.0827 7.85596 68.374 7.77486 67.2839 8.86599Z" fill="#0089E2"/>
<path d="M37.7571 37.2465L41.6118 33.6156C43.6697 31.6772 45.7275 29.7389 47.7853 27.8005C48.2551 27.358 48.7248 26.9156 49.1945 26.4731C50.2309 25.4969 50.3055 23.713 49.1945 22.7509C48.0761 21.7887 46.3464 21.7115 45.2429 22.7509L41.3882 26.3818C39.3303 28.3202 37.2725 30.2586 35.2147 32.1969L33.8055 33.5243C32.7691 34.5005 32.6945 36.2844 33.8055 37.2465C34.9239 38.2157 36.6536 38.286 37.7571 37.2465Z" fill="#0089E2"/>
</svg>
