<svg width="26" height="19" viewBox="0 0 26 19" fill="none" xmlns="http://www.w3.org/2000/svg">
<path fill-rule="evenodd" clip-rule="evenodd" d="M16.1261 0.14313L25.6544 9.094C25.7155 9.20875 25.7155 9.33307 25.6544 9.44782L16.1159 18.3413C16.0549 18.4561 15.8615 18.4561 15.7393 18.3413L14.7722 17.4328C14.6501 17.3181 14.6501 17.1364 14.7722 17.0121L22.0202 10.1459L1.56907 10.1459C1.00918 10.1459 0.500194 9.73471 0.500194 9.19919C0.500194 8.60629 0.999004 8.19508 1.56907 8.19508L21.837 8.19508L14.7722 1.52019C14.6501 1.40543 14.6501 1.22374 14.7722 1.10898L15.7495 0.14313C15.8716 0.0857529 16.0651 0.0857529 16.1261 0.14313Z" fill="#13B2F5"/>
</svg>
