<svg width="82" height="67" viewBox="0 0 82 67" fill="none" xmlns="http://www.w3.org/2000/svg">
<path d="M63.1424 37.0016C56.9887 37.0016 52 41.9897 52 48.1426C52 49.1687 52.8314 50 53.8576 50C54.8837 50 55.7152 49.1687 55.7152 48.1426C55.7152 44.0401 59.041 40.7147 63.1424 40.7147C64.1685 40.7147 65 39.8834 65 38.8574C65 37.8313 64.1685 37 63.144 37L63.1424 37.0016Z" fill="#0089E2"/>
<path d="M18.9995 37.0016C12.3725 37.0016 7 41.9897 7 48.1426C7 49.1687 7.89541 50 9.00049 50C10.1056 50 11.001 49.1687 11.001 48.1426C11.001 44.0401 14.5826 40.7147 18.9995 40.7147C20.1046 40.7147 21 39.8834 21 38.8574C21 37.8313 20.1046 37 18.9995 37V37.0016Z" fill="#0089E2"/>
<path d="M81.6113 44.604C81.3021 43.1112 80.8103 41.6632 80.1487 40.2904L66.466 7.46679C64.4154 1.64605 58.0299 -1.41152 52.2034 0.636463C47.7194 2.21245 44.7236 6.4444 44.73 11.1916H37.2743C37.1974 5.02202 32.1287 0.0828691 25.9514 0.158068C21.3152 0.214068 17.1933 3.12284 15.5913 7.46839L1.85413 40.292C-2.61705 49.5544 1.27581 60.6822 10.5482 65.1478C19.8222 69.6133 30.9641 65.7254 35.4352 56.4647C36.0985 55.0919 36.5887 53.6439 36.8979 52.1511H45.1001C47.1859 62.2198 57.051 68.6934 67.1324 66.6102C77.2138 64.527 83.6955 54.6743 81.6097 44.6056L81.6113 44.604ZM18.6303 63.3222C10.3944 63.3222 3.71726 56.6535 3.71726 48.428C3.71726 40.2024 10.3944 33.5337 18.6303 33.5337C26.8662 33.5337 33.5433 40.2024 33.5433 48.428C33.5433 56.6535 26.8662 63.3222 18.6303 63.3222ZM33.5433 37.2569C27.8674 29.7402 17.4656 27.6378 9.30984 32.3609L19.3944 8.15639C21.1598 4.44122 25.607 2.85724 29.3284 4.62042C31.6673 5.72921 33.2629 7.96919 33.5433 10.5388V37.2553V37.2569ZM44.7284 48.428H37.2727V44.7048H44.7284V48.428ZM44.7284 40.98H37.2727V14.9147H44.7284V40.98ZM48.4563 10.5404C48.8696 6.4476 52.5254 3.46523 56.6233 3.87803C59.2313 4.14043 61.5094 5.75161 62.6244 8.11959L72.709 32.3225C64.5404 27.5962 54.1242 29.7162 48.4563 37.2569V10.5404ZM63.3709 63.3222C55.135 63.3222 48.4579 56.6535 48.4579 48.428C48.4579 40.2024 55.135 33.5337 63.3709 33.5337C71.6068 33.5337 78.2839 40.2024 78.2839 48.428C78.2839 56.6535 71.6068 63.3222 63.3709 63.3222Z" fill="#0089E2"/>
</svg>
