<svg width="56" height="53" viewBox="0 0 56 53" fill="none" xmlns="http://www.w3.org/2000/svg">
<path d="M22.8003 52.4137C22.2738 52.4137 21.7676 52.26 21.3424 51.9717L16.7256 48.8392L12.1292 51.9717C10.9952 52.7404 9.39555 52.4906 8.5856 51.3952C8.28186 50.9916 8.11987 50.5112 8.11987 50.0115V35.7137C8.11987 34.9258 8.80833 34.2724 9.63854 34.2724C10.4687 34.2724 11.1572 34.9258 11.1572 35.7137V49.0891L15.2475 46.3025C16.1384 45.6876 17.3534 45.6876 18.2241 46.3218L22.2738 49.0699V35.6945C22.2738 34.9066 22.9623 34.2532 23.7925 34.2532C24.6227 34.2532 25.3112 34.9066 25.3112 35.6945V49.9923C25.3112 51.3183 24.1772 52.3945 22.7801 52.3945L22.8003 52.4137Z" fill="#0089E2"/>
<path d="M50.1362 51.3948H24.8251C23.9949 51.3948 23.3064 50.7415 23.3064 49.9535C23.3064 49.1656 23.9949 48.5122 24.8251 48.5122H50.1362C51.5334 48.5122 52.6673 47.436 52.6673 46.11V13.325C52.6673 12.614 52.3433 11.9413 51.7561 11.4801L42.1986 3.90844C41.7329 3.56252 41.166 3.35113 40.5787 3.35113H17.738C16.3408 3.35113 15.2069 4.42731 15.2069 5.75331V12.6524C15.2069 13.4403 14.5184 14.0937 13.6882 14.0937C12.858 14.0937 12.1696 13.4403 12.1696 12.6524V5.75331C12.1696 2.83226 14.6602 0.468506 17.738 0.468506H40.5787C41.8747 0.468506 43.1503 0.891291 44.1425 1.67921L53.7 9.2509C54.9757 10.2502 55.7046 11.7492 55.7046 13.325V46.11C55.7046 49.0311 53.214 51.3948 50.1362 51.3948Z" fill="#0089E2"/>
<path d="M16.7256 40.8254C15.7941 40.8254 14.9032 40.4795 14.235 39.8453L11.5419 37.2894C11.5419 37.2894 11.3191 37.1549 11.1976 37.1549H7.39084C5.44695 37.1549 3.86754 35.6559 3.86754 33.811V30.1981C3.86754 30.0828 3.82704 29.9675 3.72579 29.8714L1.03269 27.3155C-0.344231 26.0087 -0.344231 23.8948 1.03269 22.588L3.72579 20.0321C3.72579 20.0321 3.86754 19.8207 3.86754 19.7054V16.0925C3.86754 14.2476 5.44695 12.7487 7.39084 12.7487H11.1976C11.3191 12.7487 11.4406 12.7102 11.5419 12.6141L14.235 10.0582C15.6119 8.75143 17.8393 8.75143 19.2162 10.0582L21.9093 12.6141C21.9093 12.6141 22.132 12.7487 22.2535 12.7487H26.0603C28.0042 12.7487 29.5836 14.2476 29.5836 16.0925V19.7054C29.5836 19.8207 29.6241 19.936 29.7253 20.0321L32.4184 22.588C33.7954 23.8948 33.7954 26.0087 32.4184 27.3155L29.7253 29.8714C29.7253 29.8714 29.5836 30.0828 29.5836 30.1981V33.811C29.5836 35.6559 28.0042 37.1549 26.0603 37.1549H22.2535C22.132 37.1549 22.0105 37.1933 21.9093 37.2894L19.2162 39.8453C18.548 40.4795 17.657 40.8254 16.7256 40.8254ZM7.41109 15.6697C7.14785 15.6697 6.92512 15.8811 6.92512 16.1309V19.7438C6.92512 20.6278 6.56064 21.4734 5.89242 22.1076L3.19932 24.6635C3.01708 24.8365 3.01708 25.1247 3.19932 25.3169L5.89242 27.8728C6.56064 28.507 6.92512 29.3526 6.92512 30.2366V33.8495C6.92512 34.0993 7.14785 34.3107 7.41109 34.3107H11.2179C12.1493 34.3107 13.0403 34.6566 13.7085 35.2908L16.4016 37.8467C16.5838 38.0197 16.8876 38.0197 17.0901 37.8467L19.7832 35.2908C20.4514 34.6566 21.3423 34.3107 22.2738 34.3107H26.0806C26.3438 34.3107 26.5665 34.0993 26.5665 33.8495V30.2366C26.5665 29.3526 26.931 28.507 27.5992 27.8728L30.2923 25.3169C30.4746 25.1439 30.4746 24.8557 30.2923 24.6635L27.5992 22.1076C26.931 21.4734 26.5665 20.6278 26.5665 19.7438V16.1309C26.5665 15.8811 26.3438 15.6697 26.0806 15.6697H22.2738C21.3423 15.6697 20.4514 15.3238 19.7832 14.6896L17.0901 12.1337C16.9078 11.9607 16.6041 11.9607 16.4016 12.1337L13.7085 14.6896C13.0403 15.3238 12.1493 15.6697 11.2179 15.6697H7.41109Z" fill="#0089E2"/>
<path d="M16.3205 20.7813L15.3688 22.876C15.3081 23.0297 15.1461 23.1258 14.9638 23.1258H13.0807C12.8377 23.1258 12.6555 23.318 12.6555 23.5294C12.6555 23.6447 12.7162 23.7792 12.8174 23.8561L14.4576 25.1052C14.5993 25.2013 14.6601 25.3742 14.5993 25.5472L13.8501 27.9302C13.7894 28.1416 13.9109 28.3722 14.1336 28.449C14.2551 28.4875 14.4171 28.449 14.5184 28.3914L16.442 27.0269C16.604 26.9116 16.8065 26.9116 16.9685 27.0269L18.8921 28.3914C19.0744 28.5259 19.3578 28.4875 19.4996 28.3145C19.5806 28.2184 19.6008 28.0839 19.5603 27.9494L18.8111 25.5664C18.7504 25.4127 18.8111 25.2397 18.9529 25.1244L20.593 23.8753C20.7753 23.7408 20.8158 23.4717 20.6538 23.2988C20.5728 23.2027 20.4513 23.145 20.3095 23.145H18.4264C18.2441 23.145 18.1024 23.0489 18.0214 22.8952L17.0697 20.8005C16.9685 20.5891 16.7255 20.493 16.5027 20.5891C16.4015 20.6275 16.3205 20.7044 16.28 20.8005L16.3205 20.7813Z" fill="#0089E2"/>
<path d="M16.7256 34.0994C11.4204 34.0994 7.10742 30.0061 7.10742 24.9711C7.10742 19.9361 11.4204 15.8428 16.7256 15.8428C22.0308 15.8428 26.3439 19.9361 26.3439 24.9711C26.3439 30.0061 22.0308 34.0994 16.7256 34.0994ZM16.7256 18.7254C13.1011 18.7254 10.1448 21.5311 10.1448 24.9711C10.1448 28.411 13.1011 31.2168 16.7256 31.2168C20.3502 31.2168 23.3065 28.411 23.3065 24.9711C23.3065 21.5311 20.3502 18.7254 16.7256 18.7254Z" fill="#0089E2"/>
<path d="M46.0864 36.9817H32.9247C32.0945 36.9817 31.406 36.3283 31.406 35.5404C31.406 34.7525 32.0945 34.0991 32.9247 34.0991H46.0864C46.9166 34.0991 47.6051 34.7525 47.6051 35.5404C47.6051 36.3283 46.9166 36.9817 46.0864 36.9817Z" fill="#0089E2"/>
<path d="M46.0864 42.7469H31.9122C31.082 42.7469 30.3936 42.0935 30.3936 41.3056C30.3936 40.5177 31.082 39.8643 31.9122 39.8643H46.0864C46.9166 39.8643 47.6051 40.5177 47.6051 41.3056C47.6051 42.0935 46.9166 42.7469 46.0864 42.7469Z" fill="#0089E2"/>
<path d="M46.0865 31.2166H35.962C35.1318 31.2166 34.4434 30.5632 34.4434 29.7753C34.4434 28.9874 35.1318 28.334 35.962 28.334H46.0865C46.9167 28.334 47.6051 28.9874 47.6051 29.7753C47.6051 30.5632 46.9167 31.2166 46.0865 31.2166Z" fill="#0089E2"/>
<path d="M46.0865 25.451H37.9869C37.1567 25.451 36.4683 24.7976 36.4683 24.0097C36.4683 23.2218 37.1567 22.5684 37.9869 22.5684H46.0865C46.9167 22.5684 47.6051 23.2218 47.6051 24.0097C47.6051 24.7976 46.9167 25.451 46.0865 25.451Z" fill="#0089E2"/>
<path d="M46.0864 19.6858H33.9371C33.1069 19.6858 32.4185 19.0325 32.4185 18.2445C32.4185 17.4566 33.1069 16.8032 33.9371 16.8032H46.0864C46.9167 16.8032 47.6051 17.4566 47.6051 18.2445C47.6051 19.0325 46.9167 19.6858 46.0864 19.6858Z" fill="#0089E2"/>
<path d="M46.0864 13.9207H31.9122C31.082 13.9207 30.3936 13.2673 30.3936 12.4794C30.3936 11.6915 31.082 11.0381 31.9122 11.0381H46.0864C46.9166 11.0381 47.6051 11.6915 47.6051 12.4794C47.6051 13.2673 46.9166 13.9207 46.0864 13.9207Z" fill="#0089E2"/>
</svg>
