<svg width="60" height="54" viewBox="0 0 60 54" fill="none" xmlns="http://www.w3.org/2000/svg">
<path d="M56.5078 53.5058H13.2043C11.2784 53.5058 9.7121 52.0193 9.7121 50.1915V12.6293C9.7121 10.8014 11.2784 9.31494 13.2043 9.31494H56.5078C58.4337 9.31494 60 10.8014 60 12.6293V50.1915C60 52.0193 58.4337 53.5058 56.5078 53.5058ZM13.2043 11.5248C12.5626 11.5248 12.0405 12.0203 12.0405 12.6293V50.1915C12.0405 50.8005 12.5626 51.296 13.2043 51.296H56.5078C57.1494 51.296 57.6715 50.8005 57.6715 50.1915V12.6293C57.6715 12.0203 57.1494 11.5248 56.5078 11.5248H13.2043Z" fill="#0089E2"/>
<path d="M24.8445 20.3622H11.8072C11.1646 20.3622 10.6434 19.8676 10.6434 19.2577C10.6434 18.6479 11.1646 18.1532 11.8072 18.1532H24.8445C26.7705 18.1532 28.3367 16.6667 28.3367 14.8389C28.3367 14.229 28.8579 13.7344 29.5005 13.7344H57.9228C58.5653 13.7344 59.0865 14.229 59.0865 14.8389C59.0865 15.4487 58.5653 15.9434 57.9228 15.9434H30.5473C30.006 18.4614 27.6549 20.3622 24.8436 20.3622H24.8445Z" fill="#0089E2"/>
<path d="M15.5336 15.9434C14.891 15.9434 14.3689 15.4487 14.3689 14.8389C14.3689 14.229 14.8892 13.7344 15.5327 13.7344C16.1752 13.7344 16.6965 14.229 16.6965 14.8389C16.6965 15.4487 16.1752 15.9434 15.5327 15.9434H15.5336Z" fill="#0089E2"/>
<path d="M20.1894 15.9434C19.5469 15.9434 19.0248 15.4487 19.0248 14.8389C19.0248 14.229 19.5451 13.7344 20.1886 13.7344C20.8311 13.7344 21.3523 14.229 21.3523 14.8389C21.3523 15.4487 20.8311 15.9434 20.1886 15.9434H20.1894Z" fill="#0089E2"/>
<path d="M24.8464 15.9434C24.2038 15.9434 23.6818 15.4487 23.6818 14.8389C23.6818 14.229 24.2021 13.7344 24.8455 13.7344C25.4881 13.7344 26.0093 14.229 26.0093 14.8389C26.0093 15.4487 25.4881 15.9434 24.8455 15.9434H24.8464Z" fill="#0089E2"/>
<path d="M10.8758 49.0869H8.54733C6.62137 49.0869 5.05511 47.6005 5.05511 45.7726V8.2096C5.05511 6.38174 6.62137 4.89526 8.54733 4.89526H10.8758C11.5183 4.89526 12.0395 5.38993 12.0395 5.99977C12.0395 6.6096 11.5183 7.10427 10.8758 7.10427H8.54733C7.90563 7.10427 7.38355 7.59976 7.38355 8.20877V45.7709C7.38355 46.38 7.90563 46.8754 8.54733 46.8754H10.8758C11.5183 46.8754 12.0395 47.3701 12.0395 47.9799C12.0395 48.5898 11.5183 49.0844 10.8758 49.0844V49.0869ZM54.1792 11.5248C53.5366 11.5248 53.0154 11.0301 53.0154 10.4203V8.21043C53.0154 7.60142 52.4933 7.10592 51.8516 7.10592H21.3524C20.7098 7.10592 20.1886 6.61126 20.1886 6.00142C20.1886 5.39159 20.7098 4.89692 21.3524 4.89692H51.8508C53.7767 4.89692 55.343 6.3834 55.343 8.21125V10.4211C55.343 11.0309 54.8218 11.5256 54.1792 11.5256V11.5248Z" fill="#0089E2"/>
<path d="M10.8758 15.9434H7.15047C6.50791 15.9434 5.98669 15.4487 5.98669 14.8389C5.98669 14.229 6.50791 13.7344 7.15047 13.7344H10.8758C11.5184 13.7344 12.0396 14.229 12.0396 14.8389C12.0396 15.4487 11.5184 15.9434 10.8758 15.9434Z" fill="#0089E2"/>
<path d="M6.21982 44.6674H3.89138C1.9663 44.6674 0.39917 43.1809 0.39917 41.3531V3.7909C0.39917 1.96304 1.96543 0.476562 3.89138 0.476562H47.1948C49.1208 0.476562 50.687 1.96304 50.687 3.7909V6.00073C50.687 6.61057 50.1658 7.10523 49.5233 7.10523C48.8807 7.10523 48.3595 6.61057 48.3595 6.00073V3.7909C48.3595 3.18189 47.8374 2.68639 47.1957 2.68639H3.89138C3.24969 2.68639 2.7276 3.18189 2.7276 3.7909V41.3531C2.7276 41.9621 3.24969 42.4576 3.89138 42.4576H6.21982C6.86238 42.4576 7.3836 42.9522 7.3836 43.5621C7.3836 44.1719 6.86238 44.6666 6.21982 44.6666V44.6674Z" fill="#0089E2"/>
<path d="M6.21985 11.5239H2.49453C1.85196 11.5239 1.33075 11.0293 1.33075 10.4194C1.33075 9.80961 1.85196 9.31494 2.49453 9.31494H6.21985C6.86241 9.31494 7.38363 9.80961 7.38363 10.4194C7.38363 11.0293 6.86241 11.5239 6.21985 11.5239Z" fill="#0089E2"/>
<path d="M34.7119 39.1823C34.5783 39.1823 34.4448 39.1608 34.3173 39.1169L15.1381 32.5644C14.6762 32.407 14.368 31.991 14.368 31.5254C14.368 31.0597 14.6762 30.6438 15.1381 30.4863L34.3173 23.9339C34.5722 23.8469 34.8507 23.8469 35.1057 23.9339L54.2849 30.4863C54.7468 30.6438 55.0549 31.0597 55.0549 31.5254C55.0549 31.991 54.7468 32.407 54.2849 32.5644L35.1057 39.1169C34.9782 39.1608 34.8446 39.1823 34.7111 39.1823H34.7119ZM18.969 31.5246L34.7119 36.9029L50.4548 31.5246L34.7119 26.1462L18.969 31.5246Z" fill="#0089E2"/>
<path d="M34.7118 45.5828C30.7263 45.5828 26.7531 45.0865 22.9029 44.1071C22.3939 43.9778 22.0403 43.5403 22.0403 43.0399V34.145C22.0403 33.5352 22.5616 33.0405 23.2041 33.0405C23.8467 33.0405 24.3679 33.5352 24.3679 34.145V42.1831C27.751 42.9728 31.2266 43.373 34.7118 43.373C38.1971 43.373 41.6718 42.9728 45.0558 42.1831V34.145C45.0558 33.5352 45.577 33.0405 46.2196 33.0405C46.8621 33.0405 47.3833 33.5352 47.3833 34.145V43.0399C47.3833 43.5403 47.0297 43.9778 46.5208 44.1071C42.6706 45.0865 38.6973 45.5828 34.7118 45.5828Z" fill="#0089E2"/>
<path d="M52.2612 39.6977C51.6186 39.6977 51.0974 39.203 51.0974 38.5932V32.2346C51.0974 31.6248 51.6186 31.1301 52.2612 31.1301C52.9038 31.1301 53.425 31.6248 53.425 32.2346V38.5932C53.425 39.203 52.9038 39.6977 52.2612 39.6977Z" fill="#0089E2"/>
<path d="M16.1149 7.10524C15.4723 7.10524 14.9503 6.61058 14.9503 6.00074C14.9503 5.3909 15.4706 4.89624 16.114 4.89624H16.1149C16.7575 4.89624 17.2787 5.3909 17.2787 6.00074C17.2787 6.61058 16.7575 7.10524 16.1149 7.10524Z" fill="#0089E2"/>
</svg>
