<?xml version="1.0" encoding="UTF-8"?>
<svg id="Layer_1" data-name="Layer 1" xmlns="http://www.w3.org/2000/svg" viewBox="0 0 2500 1340.86">
  <defs>
    <style>
      .cls-1 {
        fill: #00adef;
      }

      .cls-2 {
        fill: #f1511b;
      }

      .cls-3 {
        fill: #fbbc09;
      }

      .cls-4 {
        fill: #80cc28;
      }

      .cls-5 {
        fill: #706d6e;
      }
    </style>
  </defs>
  <path class="cls-5" d="m2471.22,1035.15v-59.48h-73.77v-92.37l-2.52.74-69.36,21.23-1.37.42v69.99h-109.5v-38.99c0-18.18,4.1-32.05,12.09-41.3,7.99-9.14,19.34-13.77,33.84-13.77,10.4,0,21.23,2.42,32.05,7.25l2.73,1.26v-62.63l-1.26-.42c-10.09-3.68-23.96-5.46-40.98-5.46-21.54,0-41.09,4.73-58.11,13.98-17.02,9.25-30.48,22.59-39.93,39.41-9.35,16.81-14.08,36.36-14.08,57.9v42.88h-51.39v59.48h51.39v250.42h73.77v-250.53h109.4v159.1c0,65.57,30.9,98.78,91.85,98.78,9.98,0,20.6-1.16,31.32-3.47,10.93-2.31,18.39-4.73,22.8-7.25l.95-.53v-60l-3.05,2c-3.99,2.63-9.04,4.83-14.82,6.52-5.88,1.68-10.82,2.52-14.61,2.52-14.29,0-24.8-3.89-31.42-11.45-6.62-7.67-9.98-21.02-9.98-39.83v-146.39h73.98Zm-546.45,197.56c-26.8,0-47.92-8.93-62.74-26.38-14.92-17.55-22.59-42.67-22.59-74.51s7.57-58.53,22.59-76.5c14.92-17.76,35.83-26.8,62.21-26.8s45.92,8.62,60.53,25.64c14.71,17.13,22.07,42.56,22.07,75.87s-7.04,59.48-20.81,76.82c-13.77,17.13-34.36,25.85-61.27,25.85m3.26-264.5c-51.07,0-91.64,14.92-120.64,44.45-28.9,29.53-43.61,70.41-43.61,121.48s14.29,87.54,42.56,116.02c28.27,28.48,66.63,42.88,114.23,42.88s89.32-15.13,118.22-45.08c28.9-29.95,43.61-70.41,43.61-120.32s-13.77-88.59-40.88-116.86c-27.11-28.16-65.36-42.56-113.49-42.56m-283.21,0c-34.78,0-63.47,8.93-85.44,26.38-22.07,17.65-33.31,40.77-33.31,68.73,0,14.5,2.42,27.43,7.15,38.46,4.83,11.03,12.19,20.7,22.07,28.79,9.77,8.09,24.91,16.5,44.87,25.12,16.81,6.94,29.32,12.72,37.31,17.34,7.78,4.52,13.35,9.04,16.39,13.45,3.05,4.31,4.52,10.3,4.52,17.55,0,20.81-15.55,31-47.71,31-11.87,0-25.43-2.52-40.35-7.36-14.71-4.83-28.69-11.87-41.3-20.91l-3.05-2.21v71.04l1.16.53c10.4,4.83,23.64,8.93,39.09,12.09,15.45,3.15,29.53,4.83,41.82,4.83,37.73,0,68.1-8.93,90.27-26.59,22.28-17.76,33.63-41.4,33.63-70.41,0-20.91-6.1-38.78-18.07-53.28-11.87-14.29-32.58-27.53-61.48-39.09-23.01-9.25-37.73-16.92-43.72-22.8-5.88-5.67-8.83-13.66-8.83-23.85,0-9.04,3.68-16.18,11.24-22.07,7.57-5.88,18.18-8.83,31.42-8.83,12.3,0,24.91,1.89,37.41,5.78,12.51,3.78,23.43,8.93,32.68,15.13l3.05,2.1v-67.36l-1.16-.53c-8.41-3.68-19.65-6.73-33.1-9.25-13.66-2.52-25.85-3.78-36.57-3.78m-311.06,264.5c-26.8,0-47.92-8.93-62.74-26.38-15.03-17.55-22.59-42.67-22.59-74.51s7.57-58.53,22.59-76.5c14.92-17.76,35.83-26.8,62.21-26.8s45.92,8.62,60.53,25.64c14.71,17.13,22.07,42.56,22.07,75.87s-7.04,59.48-20.81,76.82c-13.77,17.13-34.36,25.85-61.27,25.85m3.26-264.5c-51.07,0-91.74,14.92-120.64,44.45s-43.61,70.41-43.61,121.48,14.29,87.54,42.56,116.02c28.27,28.48,66.63,42.88,114.23,42.88s89.32-15.13,118.22-45.08c28.9-29.95,43.61-70.41,43.61-120.32s-13.77-88.59-40.88-116.86c-27.22-28.16-65.36-42.56-113.49-42.56m-276.27,61.16v-53.7h-72.93v309.9h72.93v-158.47c0-26.9,6.1-49.08,18.18-65.78,11.87-16.5,27.74-24.91,47.18-24.91,6.52,0,13.98,1.05,21.96,3.26,7.88,2.1,13.66,4.41,17.02,6.83l3.05,2.21v-73.46l-1.16-.53c-6.83-2.84-16.39-4.31-28.58-4.31-18.29,0-34.68,5.88-48.76,17.44-12.3,10.19-21.23,24.17-28.06,41.61h-.84v-.11Zm-203.34-61.16c-33.42,0-63.26,7.15-88.59,21.33-25.43,14.19-45.08,34.36-58.43,60.11-13.35,25.64-20.07,55.59-20.07,89.01,0,29.32,6.52,56.12,19.55,79.87,12.93,23.75,31.32,42.25,54.54,55.17,23.22,12.82,50.02,19.34,79.66,19.34,34.68,0,64.21-6.94,87.96-20.6l.95-.53v-66.73l-3.05,2.21c-10.72,7.78-22.7,14.08-35.62,18.6-12.93,4.52-24.59,6.73-34.89,6.73-28.58,0-51.6-8.93-68.2-26.59-16.71-17.65-25.22-42.46-25.22-73.67s8.83-56.85,26.27-75.66c17.34-18.71,40.35-28.16,68.41-28.16,23.96,0,47.29,8.09,69.36,24.17l3.05,2.21v-70.41l-.95-.53c-8.3-4.62-19.65-8.51-33.73-11.45-14.29-2.94-28.06-4.41-40.98-4.41m-217.43,7.46h-72.93v309.9h72.93v-309.9Zm-35.73-131.99c-11.98,0-22.49,4.1-31.11,12.19-8.62,8.09-13.03,18.29-13.03,30.37s4.31,21.86,12.93,29.84c8.51,7.88,19.02,11.87,31.21,11.87s22.7-3.99,31.32-11.87,13.03-17.97,13.03-29.84-4.31-21.75-12.72-30.05c-8.3-8.3-19.02-12.51-31.63-12.51m-181.91,109.19v332.71h74.4v-432.43h-102.99l-130.83,321.15-126.95-321.15H28.78v432.43h69.88v-332.71h2.42l134.09,332.81h52.75l131.99-332.71,2.42-.11h0Z"/>
  <g>
    <path class="cls-2" d="m1275.12,370.26h-354.77V15.38h354.88v354.88h-.11Z"/>
    <path class="cls-4" d="m1666.99,370.26h-354.88V15.38h354.88v354.88h0Z"/>
    <path class="cls-1" d="m1275.12,762.24h-354.77v-354.88h354.88v354.88h-.11Z"/>
    <path class="cls-3" d="m1666.99,762.24h-354.88v-354.88h354.88v354.88h0Z"/>
  </g>
</svg>