<svg width="338" height="112" viewBox="0 0 338 112" fill="none" xmlns="http://www.w3.org/2000/svg">
<path d="M264.9 30.6294H126.697V31.8214H264.9V30.6294Z" fill="#808184"/>
<path fill-rule="evenodd" clip-rule="evenodd" d="M92.6729 7.2793C85.9382 15.5534 78.572 23.2666 70.6447 30.3487C67.3474 33.2937 63.8398 36.0284 60.1918 38.6228C59.1395 39.3941 58.7887 40.8666 57.8066 41.5678C55.702 42.9001 52.8958 43.3208 50.7912 44.3726L60.5425 62.0428C73.5911 55.1009 91.6206 50.1926 114.561 47.1774C114.14 45.1439 113.158 43.3208 111.685 41.8483C99.5479 44.8635 85.6575 46.5463 70.0834 46.7567C68.1191 46.6165 67.8385 45.6348 69.0311 43.8818C73.8717 35.1168 82.7111 24.5287 95.5492 12.0474C94.988 9.52313 94.076 7.91037 92.6729 7.2793Z" fill="#DB232C"/>
<path fill-rule="evenodd" clip-rule="evenodd" d="M97.0224 29.718C99.2673 33.7149 97.9344 38.7635 93.9357 41.0073C89.9369 43.2512 84.8858 41.9189 82.6409 37.9221C80.396 33.9252 81.7289 28.8766 85.7277 26.6328C89.7264 24.3889 94.7775 25.7212 97.0224 29.718Z" fill="#DB232C"/>
<path fill-rule="evenodd" clip-rule="evenodd" d="M21.8178 7.2793C36.7605 25.2299 50.7211 37.571 63.6995 44.3726L54.0183 61.9727C40.9697 55.0308 22.9402 50.1224 0 47.1073C0.420922 45.0738 1.40307 43.2507 2.8763 41.7782C15.0129 44.7933 28.9033 46.4762 44.4774 46.6866C46.4417 46.5463 46.7924 45.5647 45.5297 43.8117C40.6891 35.0467 31.8497 24.4586 18.9415 11.9773C19.5027 9.52313 20.4147 7.98049 21.8178 7.2793Z" fill="#A5CD39"/>
<path fill-rule="evenodd" clip-rule="evenodd" d="M19.643 31.4707C21.9581 27.544 27.0793 26.2117 31.0079 28.5257C34.9365 30.8396 36.2694 35.9584 33.9543 39.8851C31.5691 43.8118 26.5181 45.1441 22.5895 42.76C18.5907 40.446 17.3279 35.3974 19.643 31.4707Z" fill="#A5CD39"/>
<path fill-rule="evenodd" clip-rule="evenodd" d="M80.0453 0.688448C69.3118 28.1754 65.5936 49.9826 69.0311 66.1803C76.8884 92.0544 81.5886 105.377 83.132 106.219C80.7468 107.411 78.2914 107.27 75.7659 105.658C70.5044 86.515 64.6816 73.1221 58.2275 65.5492C56.7543 65.3388 55.4214 66.601 54.2287 69.2655C48.9672 77.4695 43.7759 90.0911 38.6546 107.06C35.0768 107.972 32.902 107.551 32.1304 105.938C40.1279 87.7771 45.3192 72.1404 47.6343 58.9579C48.1254 43.5316 43.846 24.1786 34.6559 0.828687C36.6202 0.19761 38.7248 0.19761 40.6891 0.758568C43.9162 12.8893 49.1777 25.7913 56.4737 39.5348C57.5961 41.1475 58.5783 41.0073 59.4903 39.0439C64.8219 30.6296 69.873 17.7275 74.5733 0.478089C76.9585 -0.223108 78.7825 -0.152988 80.0453 0.688448Z" fill="#0094D9"/>
<path fill-rule="evenodd" clip-rule="evenodd" d="M57.526 8.40137C62.0859 8.40137 65.8041 12.1177 65.8041 16.6755C65.8041 21.2333 62.0859 24.9496 57.526 24.9496C52.966 24.9496 49.2478 21.2333 49.2478 16.6755C49.2478 12.1177 52.966 8.40137 57.526 8.40137Z" fill="#0094D9"/>
<path d="M217.055 37.9917H220.142V57.9057H217.055V37.9917ZM213.758 50.2626V57.9758H211.022L210.952 55.8021C210.531 56.5734 209.9 57.2045 209.198 57.6953C208.497 58.1161 207.725 58.3264 206.883 58.3264C205.761 58.3965 204.708 57.9057 203.937 57.1344C203.165 56.2929 202.814 55.171 202.814 54.0491C202.744 52.7168 203.305 51.4547 204.428 50.6834C205.48 49.912 207.093 49.5615 209.198 49.5615H210.812V49.3511C210.882 48.5798 210.601 47.8085 210.04 47.2475C209.479 46.6865 208.637 46.4061 207.865 46.4762C207.304 46.4762 206.743 46.5463 206.181 46.7567C205.55 46.967 204.989 47.2475 204.428 47.5981L204.357 45.1439C205.059 44.8634 205.76 44.583 206.462 44.4427C207.164 44.3025 207.865 44.2324 208.567 44.2324C210.391 44.2324 211.724 44.7232 212.495 45.7049C213.337 46.6164 213.758 48.0889 213.758 50.2626ZM209.689 51.5248C208.707 51.4547 207.725 51.665 206.883 52.0858C206.252 52.4364 205.901 53.1376 205.901 53.8388C205.901 54.3296 206.111 54.8905 206.462 55.2411C206.813 55.5917 207.374 55.8021 207.865 55.8021C208.707 55.8021 209.479 55.4515 209.97 54.8204C210.531 54.0491 210.812 53.1376 210.812 52.226V51.5248H209.689ZM200.429 49.912V57.9758H197.342V50.6834C197.412 49.7017 197.202 48.7901 196.781 47.9487C196.36 47.3176 195.729 47.0371 195.027 47.0371C194.185 47.0371 193.413 47.4579 192.993 48.1591C192.431 49.0706 192.151 50.1925 192.221 51.2443V57.9758H189.134V44.4427H191.94V46.8969C192.291 46.0555 192.922 45.3543 193.694 44.8634C194.466 44.3726 195.308 44.1622 196.22 44.1622C197.482 44.0921 198.675 44.6531 199.447 45.6347C200.148 46.8969 200.499 48.3694 200.429 49.912ZM179.944 44.0921C181.698 44.022 183.452 44.7232 184.644 45.9853C185.837 47.4579 186.468 49.281 186.328 51.1742C186.398 53.0674 185.837 54.8905 184.644 56.3631C182.049 58.8874 177.91 58.8874 175.314 56.3631C174.121 54.8905 173.49 53.0674 173.63 51.1742C173.49 49.281 174.121 47.4579 175.314 45.9853C176.436 44.7232 178.12 44.022 179.944 44.0921ZM179.944 46.6164C179.032 46.6164 178.19 47.1073 177.699 47.8786C177.068 48.8603 176.787 49.9822 176.857 51.1742C176.787 52.3662 177.138 53.4882 177.699 54.4698C178.471 55.732 180.154 56.0826 181.417 55.3113C181.768 55.1009 182.049 54.8204 182.259 54.4698C182.89 53.4882 183.171 52.3662 183.101 51.1742C183.171 49.9822 182.89 48.8603 182.259 47.8786C181.698 47.0371 180.856 46.6164 179.944 46.6164ZM167.737 38.4124H170.824V41.7782H167.737V38.4124ZM167.737 44.4427H170.824V57.9758H167.737V44.4427ZM162.406 40.0252V44.4427H165.282V46.967H162.406V52.8571C162.335 53.6284 162.476 54.3296 162.827 55.0308C163.107 55.4515 163.668 55.732 164.159 55.6619C164.37 55.6619 164.51 55.6619 164.721 55.5917C164.931 55.5216 165.142 55.5216 165.352 55.4515L165.422 57.9057C165.071 57.9758 164.721 58.1161 164.37 58.1161C164.019 58.1862 163.668 58.1862 163.318 58.1862C161.915 58.1862 160.862 57.7655 160.231 56.9941C159.599 56.2228 159.319 54.8905 159.319 53.0674V46.967H156.934V44.4427H159.459V41.1471L162.406 40.0252ZM154.899 50.2626V57.9758H152.233L152.163 55.8021C151.742 56.5734 151.111 57.2045 150.409 57.6953C149.708 58.1161 148.936 58.3264 148.094 58.3264C146.972 58.3965 145.919 57.9057 145.218 57.1344C144.446 56.2929 144.095 55.171 144.095 54.0491C144.025 52.7168 144.587 51.4547 145.709 50.6834C146.761 49.912 148.305 49.5615 150.479 49.5615H152.023V49.3511C152.093 48.5798 151.812 47.8085 151.251 47.2475C150.69 46.6865 149.848 46.4061 149.076 46.4762C148.515 46.4762 147.954 46.5463 147.393 46.7567C146.761 46.967 146.2 47.2475 145.639 47.5981L145.569 45.1439C146.27 44.8634 146.972 44.583 147.673 44.4427C148.375 44.3025 149.076 44.2324 149.778 44.2324C151.602 44.2324 152.865 44.7232 153.707 45.7049C154.548 46.6164 154.899 48.0889 154.899 50.2626ZM150.9 51.5248C149.918 51.4547 148.936 51.665 148.094 52.0858C147.463 52.4364 147.112 53.1376 147.112 53.8388C147.112 54.3296 147.323 54.8905 147.673 55.2411C148.024 55.5917 148.585 55.8021 149.076 55.8021C149.918 55.8021 150.69 55.4515 151.181 54.8204C151.742 54.0491 152.023 53.1376 152.023 52.226V51.5248H150.9ZM127.609 39.4642H131.678L137.712 52.3662C137.852 52.7168 138.062 53.2077 138.203 53.7686C138.343 54.3296 138.553 55.0308 138.764 55.732C138.624 54.8906 138.553 54.0491 138.483 53.3479C138.413 52.6467 138.413 52.0156 138.413 51.5248V39.4642H141.36V57.9758H137.361L131.117 44.7232C130.907 44.3025 130.766 43.8818 130.626 43.461C130.486 42.9001 130.275 42.269 130.135 41.5678C130.275 42.6897 130.345 43.6013 130.416 44.3726C130.486 45.1439 130.486 45.7049 130.486 45.9853V57.9758H127.539L127.609 39.4642Z" fill="#404041"/>
<path d="M334.913 63.8663V68.4942H337.93V71.1587H334.913V77.3293C334.843 78.1006 334.983 78.8719 335.334 79.5731C335.615 80.0639 336.176 80.3444 336.737 80.2743C336.948 80.2743 337.088 80.2743 337.298 80.2042C337.509 80.1341 337.719 80.1341 337.93 79.9938L338 82.5181C337.649 82.6584 337.298 82.7285 336.878 82.7285C336.527 82.7986 336.106 82.7986 335.755 82.7986C334.282 82.7986 333.23 82.3779 332.598 81.5365C331.967 80.695 331.616 79.3627 331.616 77.3994V71.1587H329.161V68.4942H331.826V65.0583L334.913 63.8663ZM327.056 74.1739V82.5882H323.829V75.0153C323.899 74.0336 323.689 73.052 323.198 72.1404C322.777 71.5093 322.075 71.1587 321.374 71.2289C320.532 71.2289 319.69 71.6496 319.199 72.4209C318.638 73.4026 318.357 74.5245 318.427 75.6464V82.6584H315.2V68.4942H318.147V71.0185C318.567 70.1069 319.199 69.4057 319.971 68.8448C320.742 68.3539 321.654 68.0735 322.566 68.0735C323.899 68.0033 325.092 68.5643 325.934 69.6161C326.705 70.6679 327.056 72.2105 327.056 74.1739ZM309.798 74.244C309.798 73.2623 309.447 72.2806 308.886 71.4392C308.465 70.8081 307.694 70.4575 306.922 70.4575C306.15 70.4575 305.379 70.8081 304.888 71.4392C304.256 72.2806 303.976 73.2623 303.905 74.244H309.798ZM312.745 75.3659V76.4878H303.976C303.976 77.5396 304.467 78.5213 305.168 79.2926C305.94 79.9938 306.992 80.3444 308.044 80.3444C308.676 80.3444 309.307 80.2743 309.939 80.0639C310.57 79.9237 311.131 79.6432 311.692 79.2926V82.0974C311.061 82.3779 310.43 82.5882 309.728 82.7285C308.956 82.8687 308.255 82.9388 307.483 82.9388C305.589 83.009 303.835 82.3078 302.572 80.9054C301.38 79.5731 300.819 77.6799 300.819 75.2958C300.748 73.4026 301.31 71.5795 302.502 70.1069C303.625 68.7747 305.238 68.0735 306.992 68.1436C308.606 68.0735 310.219 68.7747 311.201 70.0368C312.184 71.299 312.745 73.052 312.745 75.3659ZM289.594 71.1587C290.015 70.2472 290.646 69.4759 291.418 68.9149C292.19 68.4241 293.102 68.1436 294.014 68.1436C295.276 68.0735 296.399 68.7045 297.1 69.6862C297.872 71.0185 298.293 72.5611 298.153 74.1739V82.5882H294.926V74.9452C294.996 73.9635 294.785 73.052 294.364 72.1404C294.014 71.5795 293.382 71.1587 292.751 71.2289C291.909 71.2289 291.137 71.6496 290.646 72.4209C290.085 73.4026 289.805 74.5245 289.875 75.6464V82.6584H286.648V75.0153C286.718 74.0336 286.507 73.052 286.086 72.2105C285.736 71.5795 285.104 71.2289 284.403 71.299C283.561 71.299 282.719 71.7197 282.298 72.491C281.737 73.4727 281.456 74.5946 281.526 75.7165V82.7285H278.369V68.5643H281.246V71.0886C281.667 70.2472 282.228 69.4759 283.07 68.9149C283.841 68.4241 284.683 68.2137 285.595 68.2137C286.437 68.2137 287.209 68.4942 287.91 68.985C288.752 69.546 289.313 70.3173 289.594 71.1587ZM269.32 70.9484C268.408 70.9484 267.496 71.3691 266.934 72.2105C266.303 73.1922 266.022 74.3842 266.093 75.5763C266.022 76.7683 266.303 77.8902 266.934 78.942C267.706 80.2042 269.32 80.5548 270.582 79.7835C270.933 79.5731 271.214 79.2926 271.424 78.942C272.056 77.8902 272.336 76.6982 272.266 75.5062C272.336 74.3842 272.056 73.1922 271.494 72.2105C271.073 71.3691 270.232 70.8783 269.32 70.9484ZM266.093 80.4847V88.4082H262.866V68.4942H265.742V71.1587C266.163 70.2472 266.794 69.4759 267.636 68.9149C269.741 67.5125 272.617 68.0735 274.09 70.1069C275.142 71.6496 275.633 73.5428 275.563 75.436C275.633 77.3293 275.142 79.2225 274.09 80.8353C273.248 82.1675 271.845 82.9388 270.232 82.9388C269.39 82.9388 268.548 82.7285 267.846 82.3078C267.145 81.8169 266.513 81.1859 266.093 80.4847ZM253.395 68.1436C255.219 68.0033 257.043 68.7747 258.306 70.1069C259.498 71.4392 260.059 73.2623 260.059 75.5763C260.2 77.5396 259.498 79.503 258.306 81.0456C255.57 83.7102 251.29 83.7102 248.554 81.0456C247.291 79.503 246.66 77.6097 246.8 75.5763C246.8 73.2623 247.362 71.4392 248.554 70.1069C249.747 68.7747 251.571 68.0033 253.395 68.1436ZM253.395 70.738C252.413 70.738 251.501 71.2289 251.01 72.0703C249.817 74.1739 249.817 76.8384 251.01 78.942C251.851 80.2743 253.535 80.6249 254.868 79.8536C255.219 79.6432 255.499 79.3627 255.78 78.942C256.411 77.8902 256.762 76.6982 256.692 75.5062C256.762 74.3141 256.411 73.052 255.78 72.0703C255.219 71.2289 254.307 70.738 253.395 70.738ZM240.697 61.7627H243.924V82.5882H240.697V61.7627ZM235.295 74.3141C235.295 73.3324 234.944 72.3508 234.383 71.5093C233.962 70.8783 233.191 70.5277 232.419 70.5277C231.647 70.5277 230.875 70.8783 230.384 71.5093C229.823 72.3508 229.472 73.3324 229.402 74.3141H235.295ZM238.171 75.436V76.558H229.402C229.402 77.6097 229.893 78.5914 230.595 79.3627C231.367 80.0639 232.419 80.4145 233.471 80.4145C234.103 80.4145 234.734 80.3444 235.365 80.1341C235.997 79.9237 236.558 79.7133 237.119 79.3627V82.1675C236.488 82.448 235.856 82.6584 235.155 82.7986C234.383 82.9388 233.682 83.009 232.91 83.009C231.016 83.1492 229.262 82.3779 227.999 80.9755C226.807 79.6432 226.245 77.75 226.245 75.3659C226.175 73.4727 226.736 71.5795 227.999 70.1069C229.122 68.7747 230.735 68.0735 232.489 68.1436C234.103 68.0735 235.716 68.7747 236.698 70.0368C237.68 71.299 238.171 73.052 238.171 75.436ZM212.565 68.4942H216.003L219.02 79.2926L222.106 68.4942H225.333L220.773 82.5882H217.055L212.565 68.4942ZM208.707 74.3141C208.707 73.3324 208.356 72.3508 207.795 71.5093C207.374 70.8783 206.602 70.5277 205.831 70.5277C205.059 70.5277 204.287 70.8783 203.796 71.5093C203.235 72.3508 202.884 73.3324 202.814 74.3141H208.707ZM211.583 75.436V76.558H202.744C202.744 77.6097 203.235 78.5914 203.937 79.3627C204.708 80.0639 205.76 80.4145 206.813 80.4145C207.444 80.4145 208.076 80.3444 208.707 80.1341C209.338 79.9938 209.9 79.7133 210.461 79.3627V82.1675C209.829 82.448 209.198 82.6584 208.496 82.7986C207.725 82.9388 207.023 83.009 206.252 83.009C204.357 83.0791 202.604 82.3779 201.341 80.9755C200.148 79.6432 199.587 77.75 199.587 75.3659C199.517 73.4727 200.078 71.6496 201.271 70.1771C202.393 68.8448 204.007 68.1436 205.76 68.2137C207.374 68.1436 208.988 68.8448 209.97 70.1069C211.092 71.299 211.583 73.052 211.583 75.436ZM182.82 63.3053H187.731C188.994 63.3053 190.257 63.3754 191.449 63.6559C192.361 63.8663 193.203 64.2169 193.975 64.7077C195.167 65.5492 196.149 66.7412 196.711 68.0735C197.342 69.6161 197.693 71.2289 197.623 72.9117C197.693 74.5946 197.342 76.2074 196.711 77.75C196.079 79.0823 195.097 80.2743 193.905 81.1157C193.133 81.6767 192.221 82.0273 191.239 82.2376C189.976 82.5181 188.713 82.6584 187.38 82.5882H182.75L182.82 63.3053ZM186.188 66.1101V79.5731H188.152C189.836 79.6432 191.449 79.0121 192.572 77.8201C193.694 76.4177 194.255 74.6647 194.115 72.8416C194.115 70.6679 193.624 68.985 192.572 67.8631C191.379 66.6711 189.695 66.04 188.012 66.1101H186.188ZM168.579 61.7627H171.806V82.5882H168.579V61.7627ZM161.704 61.7627H164.931V82.5882H161.704V61.7627ZM154.899 62.1834H158.126V65.6894H154.899V62.1834ZM154.899 68.4942H158.126V82.5882H154.899V68.4942ZM141.43 61.7627H144.657V74.1038L148.866 68.4942H152.444L147.533 74.5245L153.005 82.5882H149.076L144.587 75.1556V82.5882H141.359L141.43 61.7627ZM137.712 63.7962L137.431 66.8113C136.8 66.5308 136.168 66.2504 135.537 66.1101C134.905 65.9699 134.274 65.8998 133.643 65.8998C132.871 65.8296 132.169 66.04 131.538 66.4607C131.047 66.8113 130.766 67.3723 130.766 68.0034C130.766 68.8448 131.678 69.8265 133.502 70.8081L133.923 71.0185C135.256 71.7197 136.449 72.6312 137.431 73.8233C138.062 74.7348 138.413 75.8568 138.343 76.9787C138.413 78.5914 137.712 80.2042 136.519 81.3261C135.256 82.5181 133.502 83.0791 131.748 83.009C130.345 82.8687 129.012 82.5181 127.68 82.0273C127.469 81.9572 127.329 81.8871 127.259 81.8169L127.539 78.5213C128.311 78.942 129.153 79.3627 129.924 79.6432C130.486 79.8536 131.117 79.9938 131.678 79.9938C132.45 80.0639 133.292 79.7835 133.853 79.2926C134.414 78.8719 134.695 78.1707 134.695 77.4695C134.695 76.558 133.783 75.5062 131.959 74.3842L131.678 74.244L131.328 74.0336C130.275 73.4727 129.293 72.7014 128.451 71.7898C128.03 71.299 127.75 70.738 127.539 70.1771C127.329 69.546 127.259 68.9149 127.259 68.2838C127.188 66.8113 127.82 65.3388 128.942 64.3571C130.205 63.3053 131.819 62.7444 133.502 62.8145C134.625 62.8846 135.677 63.1651 136.729 63.5157L137.712 63.7962Z" fill="#0094D9"/>
<path d="M261.392 97.8043V105.868H258.306V98.5756C258.376 97.594 258.165 96.6824 257.744 95.841C257.323 95.2099 256.692 94.9294 255.99 94.9294C255.149 94.9294 254.377 95.3501 253.956 96.0513C253.395 96.9629 253.114 98.0848 253.184 99.1366V105.868H250.098V92.4051H252.904V94.8593C253.325 94.0179 253.886 93.3167 254.658 92.7557C255.429 92.2649 256.271 92.0545 257.183 92.0545C258.446 91.9844 259.638 92.5453 260.41 93.527C261.112 94.7892 261.533 96.2617 261.392 97.8043ZM240.907 91.9844C242.661 91.9143 244.415 92.6155 245.608 93.8776C247.853 96.9629 247.853 101.17 245.608 104.325C243.012 106.85 238.873 106.85 236.277 104.325C234.032 101.24 234.032 97.033 236.277 93.8776C237.47 92.6155 239.154 91.9143 240.907 91.9844ZM240.907 94.5087C239.995 94.5087 239.154 94.9995 238.663 95.7708C237.47 97.8043 237.47 100.329 238.663 102.362C239.504 103.624 241.118 103.975 242.381 103.204C242.731 102.993 243.012 102.713 243.223 102.362C244.345 100.329 244.345 97.8043 243.223 95.7708C242.661 94.9294 241.819 94.5087 240.907 94.5087ZM228.701 86.3047H231.787V89.6704H228.701V86.3047ZM228.701 92.335H231.787V105.798H228.701V92.335ZM223.369 87.9174V92.335H226.245V94.8593H223.369V100.749C223.299 101.521 223.439 102.222 223.79 102.923C224.071 103.344 224.632 103.624 225.123 103.554C225.333 103.554 225.474 103.554 225.684 103.484C225.895 103.414 226.105 103.414 226.315 103.344L226.386 105.798C226.035 105.938 225.684 106.008 225.333 106.008C224.983 106.078 224.632 106.078 224.281 106.078C223.159 106.219 221.966 105.728 221.194 104.886C220.563 104.115 220.282 102.783 220.282 100.96V94.8593H217.897V92.335H220.423V89.0394L223.369 87.9174ZM215.933 98.1549V105.868H213.197L213.127 103.694C212.706 104.466 212.074 105.097 211.373 105.588C210.671 106.008 209.9 106.219 209.128 106.219C208.005 106.289 206.953 105.798 206.181 105.027C205.41 104.185 205.059 103.063 205.059 101.941C204.989 100.609 205.55 99.347 206.672 98.5756C207.725 97.8043 209.338 97.4537 211.443 97.4537H213.056V97.2434C213.127 96.472 212.846 95.7007 212.285 95.0697C211.724 94.5087 210.882 94.2282 210.11 94.2983C209.549 94.2983 208.988 94.4386 208.496 94.5788C207.865 94.7892 207.304 95.0697 206.743 95.4202L206.672 92.9661C207.374 92.6856 208.076 92.4051 208.777 92.2649C209.479 92.1246 210.18 92.0545 210.882 92.0545C212.706 92.0545 214.039 92.5453 214.81 93.527C215.582 94.5087 215.933 96.0513 215.933 98.1549ZM211.864 99.4171C210.882 99.347 209.9 99.5573 209.058 99.978C208.076 100.609 207.795 101.871 208.426 102.853C208.496 102.993 208.567 103.063 208.637 103.133C208.988 103.484 209.549 103.694 210.04 103.694C210.882 103.694 211.653 103.344 212.144 102.713C212.706 101.941 212.986 101.03 212.986 100.118V99.4171H211.864ZM204.007 92.1246L203.866 95.28C203.726 95.2099 203.516 95.1398 203.375 95.1398C203.165 95.1398 203.025 95.0697 202.814 95.0697C201.902 94.9995 200.99 95.4202 200.499 96.1916C199.938 97.1732 199.657 98.3653 199.727 99.4872V105.798H196.641V92.2649H199.377V94.9294C199.657 94.088 200.148 93.3167 200.85 92.6856C201.411 92.1947 202.183 91.9143 202.954 91.9143H203.445C203.516 92.0545 203.726 92.1246 204.007 92.1246ZM187.45 91.9844C189.204 91.9143 190.958 92.6155 192.151 93.8776C194.396 96.9629 194.396 101.17 192.151 104.325C189.555 106.85 185.416 106.85 182.82 104.325C180.575 101.24 180.575 97.033 182.82 93.8776C184.013 92.6155 185.697 91.9143 187.45 91.9844ZM187.45 94.5087C186.538 94.5087 185.697 94.9995 185.205 95.7708C184.013 97.8043 184.013 100.329 185.205 102.362C186.047 103.624 187.661 103.975 188.924 103.204C189.274 102.993 189.555 102.713 189.765 102.362C190.888 100.329 190.888 97.8043 189.765 95.7708C189.204 94.9294 188.362 94.5087 187.45 94.5087ZM172.999 94.6489C172.087 94.6489 171.245 95.0696 170.754 95.841C170.122 96.8226 169.842 97.9446 169.912 99.0665C169.842 100.188 170.122 101.31 170.684 102.292C171.455 103.484 172.999 103.835 174.191 103.063C174.542 102.853 174.823 102.572 174.963 102.292C175.524 101.31 175.805 100.188 175.735 98.9963C175.805 97.8744 175.524 96.8226 174.963 95.841C174.682 95.1398 173.911 94.6489 172.999 94.6489ZM169.912 103.764V111.408H166.825V92.335H169.561V94.9294C169.982 94.088 170.614 93.3167 171.385 92.7557C173.42 91.4234 176.156 91.9143 177.629 93.9477C178.611 95.4202 179.102 97.2434 179.032 99.0665C179.102 100.89 178.611 102.713 177.629 104.255C176.787 105.517 175.454 106.219 173.981 106.219C173.139 106.219 172.367 106.008 171.666 105.588C170.964 105.167 170.333 104.536 169.912 103.764ZM164.861 92.1246L164.721 95.28C164.58 95.2099 164.37 95.1398 164.23 95.1398C164.019 95.1398 163.879 95.0697 163.668 95.0697C162.756 94.9995 161.844 95.4202 161.353 96.1916C160.792 97.1732 160.511 98.3653 160.582 99.4872V105.798H157.495V92.335H160.231V94.9995C160.511 94.1581 161.002 93.3868 161.704 92.7557C162.265 92.2649 163.037 91.9844 163.809 91.9844H164.3C164.44 92.0545 164.65 92.1246 164.861 92.1246ZM148.375 91.9844C150.129 91.9143 151.883 92.6155 153.075 93.8776C155.32 96.9629 155.32 101.17 153.075 104.325C150.479 106.85 146.34 106.85 143.745 104.325C141.5 101.24 141.5 97.033 143.745 93.8776C144.937 92.6155 146.621 91.9143 148.375 91.9844ZM148.375 94.5087C147.463 94.5087 146.621 94.9995 146.13 95.7708C144.937 97.8043 144.937 100.329 146.13 102.362C146.972 103.624 148.585 103.975 149.848 103.204C150.199 102.993 150.479 102.713 150.69 102.362C151.812 100.329 151.812 97.8043 150.69 95.7708C150.129 94.9294 149.287 94.5087 148.375 94.5087ZM140.237 87.9174L140.027 90.8625L139.746 90.7923C138.624 90.2314 137.431 89.9509 136.168 89.8107C134.484 89.7406 132.941 90.4417 131.819 91.7039C130.696 93.1063 130.135 94.9294 130.205 96.7525C130.135 98.5055 130.696 100.259 131.889 101.591C133.011 102.853 134.625 103.484 136.308 103.414C137.291 103.344 138.203 103.133 139.044 102.713C139.465 102.572 139.816 102.432 140.027 102.362L140.307 105.307L139.395 105.588C138.273 106.008 137.15 106.219 136.028 106.289C133.222 106.289 130.977 105.447 129.363 103.694C127.68 102.012 126.908 99.6975 126.908 96.7525C126.768 94.1581 127.68 91.6338 129.363 89.6704C131.047 87.8473 133.432 86.8656 135.888 87.0059C137.08 87.076 138.203 87.2864 139.325 87.7071L140.237 87.9174Z" fill="#404041"/>
<path d="M260.691 20.6022C260.901 20.3918 261.042 20.2516 261.252 19.9711C261.392 19.7607 261.603 19.5504 261.743 19.34L264.549 20.9528C264.058 21.6539 263.567 22.285 263.006 22.846C262.024 23.8277 260.831 24.6691 259.498 25.2301C256.832 26.352 253.816 26.352 251.15 25.2301C249.887 24.6691 248.694 23.8978 247.642 22.9161C246.66 21.9344 245.818 20.7424 245.257 19.4802C244.064 16.8157 244.064 13.7304 245.257 11.0659C246.379 8.47144 248.484 6.36785 251.08 5.31606C253.746 4.12402 256.832 4.12402 259.498 5.31606L260.059 5.59654C260.27 5.66666 260.41 5.80689 260.55 5.87701L258.797 8.61168C258.726 8.54156 258.586 8.54156 258.516 8.47144C258.446 8.40132 258.306 8.40132 258.235 8.3312C257.814 8.12085 257.323 7.98061 256.832 7.84037C256.341 7.77025 255.85 7.70013 255.359 7.70013C254.377 7.70013 253.325 7.91049 252.413 8.3312C250.589 9.10252 249.115 10.575 248.344 12.3981C247.502 14.2914 247.502 16.395 248.344 18.2882C248.765 19.1998 249.326 20.0412 250.027 20.7424C250.729 21.4436 251.571 22.0045 252.483 22.3551C253.395 22.7759 254.447 22.9862 255.429 22.9161C256.411 22.9161 257.464 22.7057 258.376 22.3551C259.218 21.8643 259.989 21.3034 260.691 20.6022ZM218.669 14.8523C218.669 10.2946 216.634 7.98061 212.565 7.98061H207.374V22.3551H212.565C216.634 22.4253 218.669 19.901 218.669 14.8523ZM204.077 4.68498H211.653C218.528 4.68498 222.036 8.05072 222.036 14.7822C222.036 22.0045 218.599 25.6508 211.724 25.6508H204.077V4.68498ZM177.98 19.34C177.98 17.3766 176.787 16.3249 174.402 16.3249H172.087C167.807 16.3249 165.633 14.2914 165.633 10.2946C165.633 6.57821 167.737 4.68498 172.017 4.68498H179.383V7.98061H171.596C169.702 7.98061 168.79 8.75192 168.79 10.3647C168.79 12.1878 169.702 13.0993 171.596 13.0993H173.911C178.681 13.0993 181.137 15.2029 181.137 19.4101C181.137 23.6173 178.751 25.7209 173.911 25.7209H165.773V22.4253H174.332C176.787 22.4253 177.98 21.3735 177.98 19.34ZM140.518 25.7209L129.995 11.6268V25.7209H126.697V4.68498H128.732L139.255 18.779V1.45947H142.482V25.7209H140.518Z" fill="#404041"/>
<path fill-rule="evenodd" clip-rule="evenodd" d="M153.917 11.7671C155.46 11.7671 156.723 13.0292 156.723 14.5719C156.723 16.1145 155.46 17.3767 153.917 17.3767C152.374 17.3767 151.111 16.1145 151.111 14.5719C151.111 13.0292 152.374 11.7671 153.917 11.7671Z" fill="#A5CD39"/>
<path d="M153.917 11.8771C155.4 11.8771 156.613 13.09 156.613 14.5719C156.613 16.0537 155.4 17.2667 153.917 17.2667C152.434 17.2667 151.221 16.0537 151.221 14.5719C151.221 13.09 152.434 11.8771 153.917 11.8771Z" stroke="#A5CD39" stroke-width="0.22" stroke-miterlimit="2.61"/>
<path fill-rule="evenodd" clip-rule="evenodd" d="M191.66 11.7671C193.203 11.7671 194.466 13.0292 194.466 14.5719C194.466 16.1145 193.203 17.3767 191.66 17.3767C190.116 17.3767 188.853 16.1145 188.853 14.5719C188.853 13.0292 190.116 11.7671 191.66 11.7671Z" fill="#0094D9"/>
<path fill-rule="evenodd" clip-rule="evenodd" d="M232.91 11.7671C234.453 11.7671 235.716 13.0292 235.716 14.5719C235.716 16.1145 234.453 17.3767 232.91 17.3767C231.367 17.3767 230.104 16.1145 230.104 14.5719C230.104 13.0292 231.367 11.7671 232.91 11.7671Z" fill="#DB232C"/>
<path d="M232.91 11.8771C234.393 11.8771 235.606 13.09 235.606 14.5719C235.606 16.0537 234.393 17.2667 232.91 17.2667C231.427 17.2667 230.214 16.0537 230.214 14.5719C230.214 13.09 231.427 11.8771 232.91 11.8771Z" stroke="#DB232C" stroke-width="0.22" stroke-miterlimit="2.61"/>
</svg>
