<?xml version="1.0" encoding="UTF-8"?>
<svg id="Layer_1" data-name="Layer 1" xmlns="http://www.w3.org/2000/svg" viewBox="0 0 2500 755.55">
  <defs>
    <style>
      .cls-1 {
        isolation: isolate;
      }

      .cls-2 {
        fill: #44497a;
      }

      .cls-3 {
        fill: #666;
      }
    </style>
  </defs>
  <g id="g3347">
    <path id="path61" class="cls-2" d="m271.04,298.19l.41.31c-13.76,23.34-21.92,50.76-21.92,80.12,0,50.26,23.24,96.13,61.67,124.57l-120.08,200.31L9.06,374.85,202.64,25.41h218.76s-150.36,272.79-150.36,272.79Zm330.48,405.2l-120.18-200.31c38.53-28.44,61.88-74.31,61.88-124.57,0-84.4-65.95-153.01-146.79-153.01-18.25,0-35.58,3.67-51.68,9.99L460.54,25.41h129.46l193.58,349.44-182.06,328.55Z"/>
    <g class="cls-1">
      <path class="cls-2" d="m880.73,157.11c0-81.86,43.32-130.58,110.09-130.58s110.09,47.71,110.09,130.07-43.32,130.58-110.09,130.58-110.09-47.71-110.09-130.07Zm177.37-.51c0-56.58-24.87-91.13-67.28-91.13s-67.28,33.64-67.28,91.64,24.87,90.62,67.28,90.62,67.28-34.15,67.28-91.13Z"/>
      <path class="cls-2" d="m1209.79,257.93v101.84l-42.41,19.98V32.34h42.41v21c14.58-14.58,32.62-26.81,63.81-26.81,63.3,0,102.86,50.15,102.86,130.07s-42.41,130.58-102.86,130.58c-32.21,0-50.66-13.66-63.81-29.26Zm123.24-101.33c0-54.13-23.85-91.13-64.83-91.13-25.38,0-46.28,12.23-58.51,33.64v114.99c14.17,18.55,33.13,33.64,58.51,33.64,41.49,0,64.83-32.11,64.83-91.13Z"/>
      <path class="cls-2" d="m1427.63,156.6c0-82.37,44.34-130.07,110.6-130.07,56.07,0,102.86,36.6,102.86,118.45,0,7.85-.51,18.55-1.43,28.24h-168.6c3.36,45.77,30.68,75.54,68.2,75.54,18.96,0,38.02-6.83,53.62-22.43l25.79,28.75c-18.55,18.55-46.79,32.11-80.43,32.11-68.2,0-110.6-54.54-110.6-130.58Zm170.54-19.47c-.51-56.58-33.64-73.09-59.94-73.09-36.09,0-65.34,21.92-67.79,73.09h127.73Z"/>
      <path class="cls-2" d="m1858.01,130.81c0-47.3-22.94-65.24-53.62-65.24-32.62,0-57.49,16.11-57.49,64.32v151.58h-42.41V32.34h42.41v25.38c15.6-21.41,37.51-31.19,64.32-31.19,56.58,0,89.2,31.19,89.2,111.62v143.22h-42.41v-150.56Z"/>
    </g>
    <g class="cls-1">
      <path class="cls-3" d="m880.73,448.65h42.41v32.62c11.21-24.87,31.19-38.53,58.92-38.53,16.11,0,29.77,5.3,38.53,12.64l-6.32,39.96c-7.75-5.4-18.55-10.7-35.58-10.7-23.85,0-55.56,16.11-55.56,72.58v140.37h-42.41v-248.93h0Z"/>
      <path class="cls-3" d="m1040.16,573.42c0-81.86,43.32-130.58,110.09-130.58s110.09,47.71,110.09,130.07-43.32,130.58-110.09,130.58c-66.77,0-110.09-47.71-110.09-130.07Zm177.37-.51c0-56.58-24.87-91.13-67.28-91.13s-67.28,33.64-67.28,91.64,24.87,90.62,67.28,90.62,67.28-34.15,67.28-91.13Z"/>
      <path class="cls-3" d="m1353.52,676.28v21.41h-42.41v-331.81l42.41-19.98v124.26c14.17-15.6,36.49-27.32,62.39-27.32,61.88,0,103.26,48.22,103.26,130.07s-38.53,130.58-101.84,130.58c-31.6,0-49.13-13.15-63.81-27.22Zm122.33-103.36c0-58.51-21.92-91.13-64.32-91.13-28.24,0-49.64,18.96-58,33.13v115.5c12.23,21,34.56,33.64,58,33.64,42.92,0,64.32-35.07,64.32-91.13Z"/>
      <path class="cls-3" d="m1554.84,573.42c0-81.86,43.32-130.58,110.09-130.58s110.09,47.71,110.09,130.07-43.32,130.58-110.09,130.58c-66.77,0-110.09-47.71-110.09-130.07Zm177.37-.51c0-56.58-24.87-91.13-67.28-91.13s-67.28,33.64-67.28,91.64,24.87,90.62,67.28,90.62,67.28-34.15,67.28-91.13Z"/>
      <path class="cls-3" d="m1840.47,644.07v-158.41h-40.47v-37h40.47v-82.37l42.41-20.49v102.86h61.37v37h-61.37v144.24c0,18.96,3.87,34.15,25.79,34.15,14.17,0,26.3-6.32,37-13.15l-4.89,41.39c-13.15,6.83-28.24,11.21-47.81,11.21-37.41,0-52.5-24.36-52.5-59.43Z"/>
      <path class="cls-3" d="m1987.67,377.09c0-15.09,11.72-27.32,26.3-27.32s26.81,12.23,26.81,27.32-11.72,26.3-26.81,26.3c-14.58,0-26.3-11.72-26.3-26.3Zm5.3,71.56h42.41v249.03h-42.41v-249.03Z"/>
      <path class="cls-3" d="m2086.14,573.42c0-81.86,39.96-130.58,105.2-130.58,41.39,0,73.09,18.96,87.26,58l-39.96,14.58c-7.34-18.96-22.43-33.13-46.79-33.13-42.41,0-62.39,35.07-62.39,91.13s20.9,90.11,60.86,90.11c24.87,0,43.32-13.66,50.66-37l39.45,13.15c-12.23,40.88-45.36,63.81-91.13,63.81-63.2,0-103.16-47.71-103.16-130.07Z"/>
      <path class="cls-3" d="m2312.24,661.6l30.17-25.79c12.64,13.66,34.15,29.77,60.86,29.77s46.28-9.79,46.28-31.7c0-24.87-27.83-36.09-56.98-47.3-45.77-17.02-76.96-37-76.96-77.98s36.09-65.75,83.79-65.75c38.02,0,65.75,16.11,83.79,37.51l-29.26,24.36c-10.7-11.21-28.24-23.85-55.05-23.85-25.38,0-41.39,10.19-41.39,27.83,0,20.9,24.87,30.17,52.6,41.39,45.36,16.11,80.84,35.58,80.84,82.88,0,44.85-34.56,70.64-88.69,70.64-36.39-.1-70.54-17.13-90.01-42Z"/>
    </g>
  </g>
</svg>