<svg width="440" height="1042" viewBox="0 0 440 1042" fill="none" xmlns="http://www.w3.org/2000/svg">
<g opacity="0.5">
<mask id="mask0_85_164" style="mask-type:luminance" maskUnits="userSpaceOnUse" x="-28" y="0" width="495" height="1042">
<path d="M467 1041.04L467 0L-27.0082 -2.15938e-05L-27.0082 1041.04L467 1041.04Z" fill="white"/>
</mask>
<g mask="url(#mask0_85_164)">
<path d="M467 1041.04L467 0L-27.0082 -2.15938e-05L-27.0082 1041.04L467 1041.04Z" fill="url(#paint0_radial_85_164)"/>
<path style="mix-blend-mode:screen" d="M500.316 1169.23L-79.2869 558.521L-121.554 603.057L458.049 1213.77L500.316 1169.23Z" fill="url(#paint1_radial_85_164)"/>
<path style="mix-blend-mode:screen" d="M457.996 1196.97L-121.607 586.261L-150.862 617.086L428.741 1227.8L457.996 1196.97Z" fill="url(#paint2_radial_85_164)"/>
<path style="mix-blend-mode:screen" d="M608.533 1165.3L155.294 687.736L109.267 736.234L562.505 1213.8L608.533 1165.3Z" fill="url(#paint3_radial_85_164)"/>
<path style="mix-blend-mode:screen" d="M253.993 1055.24L-199.245 577.681L-245.273 626.179L207.965 1103.74L253.993 1055.24Z" fill="url(#paint4_radial_85_164)"/>
<path style="mix-blend-mode:screen" d="M561.634 437.858L-17.969 -172.853L-60.2363 -128.317L519.367 482.394L561.634 437.858Z" fill="url(#paint5_radial_85_164)"/>
<path style="mix-blend-mode:screen" d="M590.943 423.828L11.3394 -186.882L-17.9159 -156.057L561.687 454.653L590.943 423.828Z" fill="url(#paint6_radial_85_164)"/>
<path style="mix-blend-mode:screen" d="M330.812 304.682L-122.427 -172.881L-168.454 -124.383L284.784 353.18L330.812 304.682Z" fill="url(#paint7_radial_85_164)"/>
<path style="mix-blend-mode:screen" d="M685.351 414.737L232.113 -62.8262L186.086 -14.3282L639.324 463.235L685.351 414.737Z" fill="url(#paint8_radial_85_164)"/>
</g>
</g>
<defs>
<radialGradient id="paint0_radial_85_164" cx="0" cy="0" r="1" gradientUnits="userSpaceOnUse" gradientTransform="translate(219.529 525.11) rotate(-90) scale(489.29 464.368)">
<stop stop-color="white"/>
<stop offset="1" stop-color="#E6E7E8"/>
</radialGradient>
<radialGradient id="paint1_radial_85_164" cx="0" cy="0" r="1" gradientUnits="userSpaceOnUse" gradientTransform="translate(211.394 865.629) rotate(-133.503) scale(421.204 75.0267)">
<stop stop-color="white"/>
<stop offset="1"/>
</radialGradient>
<radialGradient id="paint2_radial_85_164" cx="0" cy="0" r="1" gradientUnits="userSpaceOnUse" gradientTransform="translate(141.549 922.544) rotate(-133.503) scale(420.729 74.9381)">
<stop stop-color="white"/>
<stop offset="1"/>
</radialGradient>
<radialGradient id="paint3_radial_85_164" cx="0" cy="0" r="1" gradientUnits="userSpaceOnUse" gradientTransform="translate(338.286 977.193) rotate(-133.503) scale(328.958 58.5961)">
<stop stop-color="white"/>
<stop offset="1"/>
</radialGradient>
<radialGradient id="paint4_radial_85_164" cx="0" cy="0" r="1" gradientUnits="userSpaceOnUse" gradientTransform="translate(-16.4618 866.765) rotate(-133.503) scale(328.958 58.5961)">
<stop stop-color="white"/>
<stop offset="1"/>
</radialGradient>
<radialGradient id="paint5_radial_85_164" cx="0" cy="0" r="1" gradientUnits="userSpaceOnUse" gradientTransform="translate(228.045 174.828) rotate(46.497) scale(421.204 75.0267)">
<stop stop-color="white"/>
<stop offset="1"/>
</radialGradient>
<radialGradient id="paint6_radial_85_164" cx="0" cy="0" r="1" gradientUnits="userSpaceOnUse" gradientTransform="translate(298.544 118.695) rotate(46.497) scale(420.729 74.9381)">
<stop stop-color="white"/>
<stop offset="1"/>
</radialGradient>
<radialGradient id="paint7_radial_85_164" cx="0" cy="0" r="1" gradientUnits="userSpaceOnUse" gradientTransform="translate(101.463 63.3612) rotate(46.497) scale(328.958 58.5961)">
<stop stop-color="white"/>
<stop offset="1"/>
</radialGradient>
<radialGradient id="paint8_radial_85_164" cx="0" cy="0" r="1" gradientUnits="userSpaceOnUse" gradientTransform="translate(456.211 173.785) rotate(46.497) scale(328.958 58.5961)">
<stop stop-color="white"/>
<stop offset="1"/>
</radialGradient>
</defs>
</svg>
