<svg width="34" height="32" viewBox="0 0 34 32" fill="none" xmlns="http://www.w3.org/2000/svg">
<path d="M33.3727 16.0256C33.3727 19.1057 33.3727 22.1857 33.3727 25.2658C33.3727 28.7049 30.4707 31.4637 26.8729 31.4637C20.3731 31.4637 13.8931 31.4637 7.39326 31.4637C3.77561 31.4637 0.873535 28.6293 0.893412 25.1902C0.913289 19.0679 0.913289 12.9456 0.893412 6.84217C0.873535 3.4031 3.79548 0.549805 7.41313 0.549805C13.8931 0.549805 20.3532 0.549805 26.8331 0.549805C30.4707 0.549805 33.3727 3.32752 33.3727 6.78549C33.3727 9.86553 33.3727 12.9456 33.3727 16.0256ZM22.0626 5.78399C20.6712 5.7462 19.3196 5.67062 17.9679 5.67062C17.1331 5.67062 16.338 5.93517 15.6622 6.42646C14.4298 7.29568 13.8136 8.50502 13.6744 9.92222C13.5751 10.9615 13.6148 12.0197 13.5949 13.059C13.5949 13.2479 13.5949 13.4369 13.5949 13.6636C12.3427 13.6636 11.15 13.6636 9.93754 13.6636C9.93754 14.9864 9.93754 16.2524 9.93754 17.5751C11.1699 17.5751 12.3626 17.5751 13.5949 17.5751C13.5949 20.7874 13.5949 23.962 13.5949 27.1554C15.0857 27.1554 16.5169 27.1554 18.0077 27.1554C18.0077 23.9431 18.0077 20.7874 18.0077 17.5751C19.1009 17.5751 20.1544 17.5751 21.2278 17.5751C21.4464 16.2713 21.6651 14.9864 21.8837 13.6447C20.552 13.6447 19.2798 13.6447 17.9878 13.6447C17.9878 12.681 17.9878 11.7551 17.9878 10.8292C17.9878 10.1301 18.3058 9.60099 18.9618 9.33645C19.3593 9.16638 19.8165 9.0908 20.2538 9.05301C20.7507 9.01521 21.2675 9.03411 21.7645 9.05301C21.9831 9.05301 22.0428 8.99632 22.0428 8.78846C22.0229 8.41054 22.0428 8.05152 22.0428 7.67359C22.0626 7.05003 22.0626 6.44535 22.0626 5.78399Z" fill="#080808"/>
</svg>
