<svg width="34" height="32" viewBox="0 0 34 32" fill="none" xmlns="http://www.w3.org/2000/svg">
<path d="M33.2662 16.0067C33.2662 19.1057 33.2662 22.1857 33.2662 25.2847C33.2662 28.686 30.3641 31.4637 26.7862 31.4826C20.2864 31.5015 13.7667 31.4826 7.26684 31.4826C3.68894 31.4826 0.786865 28.7237 0.786865 25.3225C0.786865 19.1435 0.786865 12.9456 0.786865 6.76659C0.786865 3.30862 3.70881 0.549805 7.34634 0.549805C13.7865 0.549805 20.2466 0.549805 26.6868 0.549805C30.3641 0.549805 33.2861 3.36531 33.2662 6.86107C33.2463 9.90333 33.2662 12.9645 33.2662 16.0067ZM6.37236 15.9878C6.39224 15.9878 6.39224 15.9878 6.37236 15.9878C6.39224 17.6318 6.3326 19.2946 6.39224 20.9386C6.49162 23.773 9.05578 26.0972 12.0572 26.1161C15.3767 26.1161 18.6763 26.1161 21.9958 26.1161C25.0172 26.1161 27.6012 23.7541 27.6608 20.8819C27.7205 17.7074 27.7205 14.514 27.6608 11.3394C27.6012 8.18379 25.0768 5.91627 21.7374 5.91627C18.5968 5.91627 15.4562 5.91627 12.3156 5.91627C8.87688 5.91627 6.37236 8.29716 6.37236 11.5662C6.37236 13.0401 6.37236 14.5139 6.37236 15.9878Z" fill="#080808"/>
<path d="M17.0266 24.34C15.4563 24.34 13.9058 24.34 12.3355 24.34C9.97016 24.34 8.24084 22.7527 8.22096 20.5041C8.20109 17.4996 8.20109 14.4951 8.22096 11.4907C8.24084 9.26094 9.97016 7.65479 12.2958 7.65479C15.4364 7.65479 18.577 7.65479 21.6977 7.65479C24.083 7.65479 25.7924 9.24205 25.8123 11.5096C25.8321 14.4951 25.8321 17.4807 25.8123 20.4474C25.7924 22.7338 24.083 24.3022 21.6977 24.3022C20.1473 24.34 18.5969 24.34 17.0266 24.34ZM22.8506 16.0446C22.8704 13.0212 20.2467 10.5081 17.0663 10.4892C13.9058 10.4703 11.282 12.9646 11.2622 15.9501C11.2423 19.0113 13.8064 21.4867 16.9868 21.5056C20.2069 21.5433 22.8307 19.0869 22.8506 16.0446ZM22.7512 9.44991C22.0555 9.44991 21.5188 9.9412 21.4989 10.5837C21.4989 11.245 22.0157 11.7552 22.6916 11.7741C23.3674 11.7741 23.924 11.2828 23.9438 10.6404C23.9836 9.99789 23.427 9.44991 22.7512 9.44991Z" fill="#080808"/>
<path d="M20.843 16.0446C20.7833 18.1042 19.0341 19.7104 16.9073 19.6726C14.84 19.6159 13.1306 17.9153 13.1902 15.969C13.2499 13.9282 14.9991 12.3598 17.1458 12.3976C19.1931 12.4543 20.9026 14.1361 20.843 16.0446Z" fill="#080808"/>
</svg>
