<svg width="33" height="32" viewBox="0 0 33 32" fill="none" xmlns="http://www.w3.org/2000/svg">
<path d="M16.3391 0.558203C19.0821 0.558203 21.8252 0.539307 24.5682 0.558203C25.741 0.558203 26.8938 0.577097 28.0467 0.898329C30.5115 1.57858 32.3402 3.65715 32.5588 6.09473C32.6185 6.83167 32.6781 7.58751 32.6781 8.34335C32.6781 13.5587 32.6781 18.774 32.6781 23.9893C32.6781 25.123 32.6582 26.2568 32.3004 27.3716C31.5451 29.6769 29.3586 31.3587 26.8143 31.5477C25.9 31.6043 24.9856 31.661 24.0713 31.661C18.7243 31.661 13.3575 31.661 8.01051 31.661C6.89739 31.661 5.76439 31.6421 4.67114 31.3398C2.16661 30.6595 0.318036 28.5432 0.119264 26.0678C0.0596328 25.1797 0.0198772 24.2916 0 23.4035C0 18.3771 0 13.3508 0 8.32446C0 7.22849 0.0198796 6.13252 0.337915 5.07435C1.03362 2.67455 3.22011 0.936121 5.8439 0.709369C6.67874 0.633785 7.51358 0.595991 8.34842 0.595991C10.9921 0.558199 13.6556 0.558203 16.3391 0.558203ZM13.1189 13.1051C13.1189 17.2623 13.1189 21.3816 13.1189 25.5198C14.4308 25.5198 15.7427 25.5198 17.0546 25.5198C17.0546 25.4064 17.0546 25.2931 17.0546 25.1986C17.0546 23.12 17.0546 21.0226 17.0546 18.944C17.0546 17.7914 17.7106 16.8088 18.7243 16.5064C19.7381 16.2041 20.7319 16.2608 21.527 17.0355C22.0239 17.5079 22.1631 18.1126 22.1631 18.7551C22.1631 20.9092 22.1631 23.0633 22.1631 25.2175C22.1631 25.312 22.1631 25.4064 22.1631 25.5198C23.4948 25.5198 24.8067 25.5198 26.1186 25.5198C26.1186 25.4442 26.1385 25.3687 26.1385 25.312C26.1385 22.6854 26.1385 20.0589 26.1385 17.4512C26.1385 17.1867 26.0988 16.9221 26.0391 16.6765C25.7807 15.6939 25.4031 14.7491 24.5682 14.0688C22.1631 12.0848 18.6647 12.7272 16.995 14.7113C16.9552 14.7491 16.9155 14.7869 16.836 14.8436C16.836 14.2389 16.836 13.6909 16.836 13.124C15.5638 13.1052 14.3513 13.1051 13.1189 13.1051ZM10.8331 13.1051C9.48142 13.1051 8.14965 13.1051 6.81788 13.1051C6.81788 17.2623 6.81788 21.3816 6.81788 25.5198C8.16953 25.5198 9.5013 25.5198 10.8331 25.5198C10.8331 21.3438 10.8331 17.2245 10.8331 13.1051ZM11.1511 9.00471C11.1511 7.79537 10.0976 6.79389 8.82548 6.79389C7.53346 6.79389 6.49984 7.79537 6.49984 9.00471C6.49984 10.233 7.55333 11.2155 8.84535 11.2155C10.1175 11.2155 11.1511 10.2141 11.1511 9.00471Z" fill="#080808"/>
</svg>
