<svg width="34" height="32" viewBox="0 0 34 32" fill="none" xmlns="http://www.w3.org/2000/svg">
<path d="M19.8619 16.4789C19.8619 18.0284 18.5301 19.2756 16.9002 19.2756C15.2703 19.2756 13.9584 18.0095 13.9584 16.46C13.9584 14.9106 15.2901 13.6634 16.94 13.6823C18.5699 13.6823 19.8818 14.9295 19.8619 16.4789Z" fill="#080808"/>
<path d="M33.1597 6.86107C33.1796 3.36531 30.2577 0.549805 26.5804 0.549805C20.1402 0.549805 13.6801 0.549805 7.23989 0.549805C3.60237 0.549805 0.68042 3.30862 0.68042 6.76659C0.68042 12.9456 0.68042 19.1435 0.68042 25.3225C0.68042 28.7048 3.58249 31.4826 7.16038 31.4826C13.6602 31.4826 20.1799 31.4826 26.6798 31.4826C30.2577 31.4826 33.1597 28.6859 33.1597 25.2847C33.1597 22.1857 33.1597 19.1057 33.1597 16.0067C33.1597 12.9645 33.1399 9.90333 33.1597 6.86107ZM24.7119 19.2757C23.1019 20.8252 21.4918 22.3558 19.8619 23.8864C18.232 25.4169 15.5883 25.4169 13.9584 23.8864C12.3284 22.3558 10.7184 20.8252 9.12823 19.2946C7.4983 17.7452 7.51817 15.2131 9.12823 13.6636C10.7184 12.1519 12.3086 10.6214 13.9186 9.10969C14.7535 8.31606 15.7473 7.91924 16.9201 7.93814C18.0928 7.93814 19.0867 8.33496 19.9017 9.10969C21.4918 10.6214 23.082 12.1331 24.6722 13.6447C26.322 15.1942 26.3419 17.6885 24.7119 19.2757Z" fill="#080808"/>
<path d="M19.862 16.4794C19.862 18.0289 18.5303 19.276 16.9003 19.276C15.2704 19.276 13.9585 18.01 13.9585 16.4605C13.9585 14.9111 15.2903 13.6639 16.9401 13.6828C18.57 13.6828 19.8819 14.93 19.862 16.4794Z" fill="#080808"/>
</svg>
