<svg width="33" height="32" viewBox="0 0 33 32" fill="none" xmlns="http://www.w3.org/2000/svg">
<path d="M32.4793 6.44847C32.4992 2.95271 29.5773 0.137207 25.9 0.137207C19.4598 0.137207 12.9997 0.137207 6.55947 0.137207C2.92195 0.137207 0 2.89602 0 6.35399C0 12.533 0 18.7309 0 24.9099C0 28.2922 2.90207 31.07 6.47996 31.07C12.9798 31.07 19.4995 31.07 25.9994 31.07C29.5773 31.07 32.4793 28.2734 32.4793 24.8721C32.4793 21.7731 32.4793 18.6931 32.4793 15.5941C32.4793 12.5519 32.4595 9.49073 32.4793 6.44847ZM12.2841 20.4693C9.48143 20.4882 7.19554 18.3152 7.17566 15.6508C7.15579 12.9298 9.42179 10.7379 12.2443 10.7379C15.0669 10.719 17.3528 12.892 17.3727 15.5752C17.3925 18.2774 15.1067 20.4693 12.2841 20.4693ZM22.2028 18.8254C22.0239 19.1277 21.8252 19.43 21.5668 19.6757C20.8512 20.3748 19.9169 20.3559 19.2014 19.6568C18.5255 18.9954 18.2274 18.164 18.0286 17.2948C17.7106 15.802 17.7901 14.347 18.3467 12.9109C18.5852 12.3062 18.9032 11.7394 19.4797 11.3425C20.076 10.9079 20.7915 10.8701 21.3481 11.3614C21.7457 11.7205 22.0836 12.174 22.342 12.6275C22.7991 13.44 22.978 14.5171 22.978 15.8209C22.9383 16.7279 22.7793 17.8239 22.2028 18.8254ZM24.8863 18.8443C24.8664 19.0143 24.8067 19.1844 24.7074 19.3355C24.6279 19.4678 24.4688 19.5812 24.3496 19.7135C24.2303 19.6001 24.0713 19.5056 23.9918 19.3544C23.8725 19.1466 23.793 18.9009 23.7532 18.6742C23.3358 16.5767 23.316 14.4793 23.793 12.4007C23.8129 12.2873 23.8328 12.1929 23.8924 12.0795C24.0117 11.8527 24.0514 11.4748 24.3694 11.5126C24.5483 11.5315 24.7272 11.8527 24.8067 12.0606C24.9459 12.4574 25.0453 12.892 25.1049 13.3077C25.2043 14.0636 25.244 14.8383 25.3235 15.8776C25.1844 16.6901 25.0453 17.7672 24.8863 18.8443Z" fill="#080808"/>
</svg>
