<svg width="34" height="32" viewBox="0 0 34 32" fill="none" xmlns="http://www.w3.org/2000/svg">
<path d="M16.3578 13.137C18.604 15.9903 20.8501 18.8436 23.0962 21.7157C23.1757 21.8102 23.2552 21.9236 23.3546 22.037C23.2751 22.037 23.2353 22.0559 23.1757 22.0559C22.5198 22.0559 21.8837 22.0559 21.2277 22.0559C21.1085 22.0559 21.029 22.0181 20.9495 21.9236C19.2599 19.7695 17.5703 17.6153 15.8609 15.4612C14.2508 13.4204 12.6408 11.3607 11.0308 9.31997C10.991 9.28218 10.9711 9.22549 10.9115 9.1499C11.6668 9.1499 12.3824 9.1499 13.098 9.1499C13.1576 9.1499 13.2371 9.22549 13.2968 9.28218C14.3304 10.5671 15.3441 11.852 16.3578 13.137Z" fill="#080808"/>
<path d="M33.3729 6.44847C33.3928 2.95271 30.4708 0.137207 26.7935 0.137207C20.3533 0.137207 13.8932 0.137207 7.45303 0.137207C3.8155 0.137207 0.893555 2.89602 0.893555 6.35399C0.893555 12.533 0.893555 18.7309 0.893555 24.9099C0.893555 28.2923 3.79562 31.07 7.37352 31.07C13.8734 31.07 20.3931 31.07 26.8929 31.07C30.4708 31.07 33.3729 28.2734 33.3729 24.8721C33.3729 21.7731 33.3729 18.6931 33.3729 15.5941C33.353 12.5519 33.353 9.49073 33.3729 6.44847ZM25.3226 23.0958C23.7722 23.0958 22.2218 23.0958 20.6714 23.0958C20.5521 23.0958 20.4925 23.0581 20.4328 22.9825C18.9619 21.1118 17.5109 19.26 16.04 17.3893C16.0002 17.3326 15.9605 17.2948 15.9008 17.2192C15.6226 17.5026 15.3641 17.7483 15.1256 18.0128C13.5156 19.6568 11.9055 21.3196 10.3153 22.9636C10.2358 23.0581 10.1365 23.0958 10.0172 23.0958C9.6594 23.0958 9.30161 23.0958 8.92395 23.0958C8.86431 23.0958 8.80468 23.0959 8.72517 23.077C10.9117 20.8283 13.0783 18.5986 15.2648 16.3689C13.0981 13.629 10.9514 10.889 8.76492 8.11132H9.00344C10.5141 8.11132 12.0447 8.11132 13.5553 8.11132C13.7143 8.11132 13.8137 8.14911 13.8932 8.28139C15.2051 9.96313 16.5369 11.6449 17.8687 13.3455C17.9084 13.4022 17.9681 13.4589 18.0277 13.5345C18.3656 13.1943 18.6836 12.8731 19.0017 12.533C20.413 11.0969 21.8043 9.64189 23.2156 8.2058C23.2554 8.16801 23.315 8.13022 23.3548 8.13022C23.812 8.13022 24.2691 8.13022 24.7859 8.13022C22.7386 10.2277 20.731 12.3062 18.7035 14.3848C20.9894 17.2948 23.2753 20.1859 25.581 23.1148H25.3226V23.0958Z" fill="#080808"/>
<path d="M23.3546 22.0375C23.2751 22.0375 23.2353 22.0564 23.1757 22.0564C22.5198 22.0564 21.8837 22.0564 21.2277 22.0564C21.1085 22.0564 21.029 22.0186 20.9495 21.9241C19.2599 19.77 17.5703 17.6158 15.8609 15.4617C14.2508 13.4209 12.6408 11.3612 11.0308 9.32046C10.991 9.28267 10.9711 9.22597 10.9115 9.15039C11.6668 9.15039 12.3824 9.15039 13.098 9.15039C13.1576 9.15039 13.2371 9.22598 13.2968 9.28266C14.3105 10.5676 15.3242 11.8525 16.338 13.1374C18.5841 15.9907 20.8302 18.844 23.0763 21.7162C23.1757 21.8107 23.2552 21.9241 23.3546 22.0375Z" fill="#080808"/>
</svg>
