<svg width="34" height="32" viewBox="0 0 34 32" fill="none" xmlns="http://www.w3.org/2000/svg">
<path d="M33.2664 6.44847C33.2863 2.95271 30.3644 0.137207 26.6871 0.137207C20.2469 0.137207 13.7868 0.137207 7.34658 0.137207C3.70906 0.137207 0.787109 2.89602 0.787109 6.35399C0.787109 12.533 0.787109 18.7309 0.787109 24.9099C0.787109 28.2923 3.68917 31.07 7.26707 31.07C13.7669 31.07 20.2866 31.07 26.7865 31.07C30.3644 31.07 33.2664 28.2734 33.2664 24.8721C33.2664 21.7731 33.2664 18.6931 33.2664 15.5941C33.2664 12.5519 33.2466 9.49073 33.2664 6.44847ZM27.2039 17.068C27.184 17.6916 27.1443 18.3152 27.0846 18.9387C27.0648 19.2978 27.0051 19.6568 26.9455 20.0158C26.8859 20.3559 26.7666 20.6772 26.6275 20.9984C26.3094 21.7164 25.733 22.17 24.9578 22.3967C24.6 22.4912 24.2422 22.529 23.8844 22.5479C23.0893 22.5857 22.3141 22.6235 21.519 22.6612C20.7836 22.6801 20.068 22.699 19.3325 22.7179C18.5375 22.7368 17.7424 22.7368 16.9075 22.7557C15.9534 22.7368 14.9397 22.7368 13.9259 22.7179C13.27 22.699 12.614 22.699 11.9581 22.6612C11.2425 22.6423 10.5269 22.6046 9.81136 22.5479C9.37406 22.5101 8.93676 22.4723 8.51934 22.3211C7.80376 22.0755 7.28694 21.6409 6.98878 20.9606C6.79001 20.4504 6.65089 19.9402 6.61114 19.3922C6.55151 18.6742 6.51174 17.9561 6.45211 17.2192C6.43223 17.0113 6.43224 16.8035 6.43224 16.5956C6.43224 15.9343 6.41236 15.2918 6.43224 14.6304C6.45211 13.9691 6.49186 13.2888 6.5515 12.6275C6.57137 12.2307 6.61114 11.8527 6.71052 11.4748C6.79003 11.0969 6.90928 10.7379 7.08817 10.3977C7.38633 9.81196 7.88327 9.43404 8.51934 9.20729C8.85725 9.09391 9.23493 9.03723 9.59272 9.01833C10.2089 8.98054 10.8052 8.96164 11.4214 8.92385C11.9183 8.90495 12.3954 8.88605 12.8923 8.86716C14.244 8.84826 15.5757 8.81047 16.9274 8.81047C18.2194 8.81047 19.5313 8.82937 20.8233 8.86716C21.5787 8.88605 22.3539 8.92385 23.1092 8.94275C23.5664 8.96164 24.0235 8.99944 24.4807 9.03723C25.236 9.11281 25.8523 9.43404 26.3293 10.0009C26.5678 10.2844 26.6871 10.6056 26.8064 10.9457C26.9455 11.3614 27.025 11.796 27.0648 12.2495C27.1045 12.7786 27.1642 13.2888 27.184 13.8179C27.2039 14.2147 27.2238 14.6304 27.2238 15.0273C27.2238 15.7075 27.2437 16.3878 27.2039 17.068Z" fill="#080808"/>
<path d="M14.2356 11.8711V19.3161C16.7401 18.069 19.2447 16.8407 21.7691 15.6125C19.2447 14.3654 16.7401 13.1182 14.2356 11.8711ZM15.1897 12.8348C17.0582 13.7607 18.9266 14.6866 20.7951 15.6125C18.9266 16.5384 17.0582 17.4454 15.1897 18.3713V12.8348Z" fill="#080808"/>
<path d="M21.7691 15.6125C19.2447 16.8596 16.76 18.0879 14.2356 19.3161V11.8711C16.7401 13.1182 19.2447 14.3654 21.7691 15.6125Z" fill="#080808"/>
</svg>
