<svg width="279" height="56" viewBox="0 0 279 56" fill="none" xmlns="http://www.w3.org/2000/svg">
<path d="M88.804 11.19V7.25025C88.804 7.14825 88.8741 7.07812 88.9761 7.07812H93.2155C93.3175 7.07812 93.3876 7.14825 93.3876 7.25025V11.19C93.3876 11.292 93.3175 11.3621 93.2155 11.3621H88.9761C88.8741 11.3621 88.804 11.292 88.804 11.19ZM88.8167 31.9024V14.3775C88.8167 14.2755 88.8869 14.2054 88.9889 14.2054H93.2282C93.3302 14.2054 93.4004 14.2755 93.4004 14.3775V31.9024C93.4004 32.0044 93.3302 32.0746 93.2282 32.0746H88.9889C88.8869 32.0746 88.8167 32.0044 88.8167 31.9024Z" fill="#1E1E1E"/>
<path d="M96.2309 31.9027V14.3778C96.2309 14.2758 96.301 14.2057 96.403 14.2057H99.922C100.011 14.2057 100.094 14.2567 100.132 14.3459L100.553 15.5508C100.585 15.6719 100.693 15.7102 100.783 15.6209C102.249 14.3842 104.008 13.8423 105.959 13.8423C110.441 13.8423 113.144 16.1819 113.144 20.6444V31.9091C113.144 32.0111 113.074 32.0812 112.972 32.0812H108.771C108.669 32.0812 108.598 32.0111 108.598 31.9091V21.4859C108.598 19.0252 107.19 17.6482 104.71 17.6482C102.23 17.6482 100.821 19.1654 100.821 21.6963V31.9155C100.821 32.0175 100.751 32.0876 100.649 32.0876H96.4094C96.3074 32.0876 96.2372 32.0175 96.2372 31.9155L96.2309 31.9027Z" fill="#1E1E1E"/>
<path d="M116.127 31.9027V14.3778C116.127 14.2758 116.197 14.2057 116.299 14.2057H119.818C119.908 14.2057 119.991 14.2567 120.029 14.3459L120.45 15.5508C120.481 15.6719 120.59 15.7102 120.679 15.6209C122.145 14.3842 123.905 13.8423 125.856 13.8423C130.337 13.8423 133.04 16.1819 133.04 20.6444V31.9091C133.04 32.0111 132.97 32.0812 132.868 32.0812H128.667C128.565 32.0812 128.495 32.0111 128.495 31.9091V21.4859C128.495 19.0252 127.08 17.6482 124.606 17.6482C122.133 17.6482 120.717 19.1654 120.717 21.6963V31.9155C120.717 32.0175 120.647 32.0876 120.545 32.0876H116.306C116.204 32.0876 116.134 32.0175 116.134 31.9155L116.127 31.9027Z" fill="#1E1E1E"/>
<path d="M135.138 23.1179C135.138 17.4888 138.746 13.8423 144.311 13.8423C149.877 13.8423 153.447 17.4888 153.447 23.1179C153.447 28.7471 149.857 32.4255 144.311 32.4255C138.765 32.4255 135.138 28.7662 135.138 23.1179ZM148.895 23.1179C148.895 19.7902 147.097 17.6418 144.311 17.6418C141.525 17.6418 139.689 19.7838 139.689 23.1179C139.689 26.4521 141.5 28.6451 144.311 28.6451C147.123 28.6451 148.895 26.4839 148.895 23.1179Z" fill="#1E1E1E"/>
<path d="M158.011 31.9024V7.25025C158.011 7.14825 158.081 7.07812 158.183 7.07812H168.192C172.846 7.07812 176.263 10.476 176.263 15.117C176.263 18.8464 174.063 21.7789 170.806 22.7862C170.685 22.818 170.646 22.9073 170.717 23.0157L176.926 31.8706C177.015 31.9726 176.958 32.0809 176.824 32.0809H171.507C171.418 32.0809 171.348 32.0618 171.297 31.9789L165.317 23.277C165.266 23.1878 165.196 23.175 165.107 23.175H162.965C162.863 23.175 162.792 23.2452 162.792 23.3472V31.9088C162.792 32.0108 162.722 32.0809 162.62 32.0809H158.19C158.088 32.0809 158.018 32.0108 158.018 31.9088L158.011 31.9024ZM162.965 19.1779H167.446C169.786 19.1779 171.507 17.4503 171.507 15.117C171.507 12.7838 169.779 11.0753 167.446 11.0753H162.965C162.863 11.0753 162.792 11.1454 162.792 11.2474V19.0058C162.792 19.1078 162.863 19.1779 162.965 19.1779Z" fill="#1E1E1E"/>
<path d="M177.092 23.1179C177.092 17.4888 180.7 13.8423 186.265 13.8423C191.831 13.8423 195.401 17.4888 195.401 23.1179C195.401 28.7471 191.811 32.4255 186.265 32.4255C180.719 32.4255 177.092 28.7662 177.092 23.1179ZM190.849 23.1179C190.849 19.7902 189.051 17.6418 186.265 17.6418C183.479 17.6418 181.643 19.7838 181.643 23.1179C181.643 26.4521 183.454 28.6451 186.265 28.6451C189.077 28.6451 190.849 26.4839 190.849 23.1179Z" fill="#1E1E1E"/>
<path d="M197.077 23.1179C197.077 17.4888 200.685 13.8423 206.251 13.8423C211.816 13.8423 215.386 17.4888 215.386 23.1179C215.386 28.7471 211.797 32.4255 206.251 32.4255C200.705 32.4255 197.077 28.7662 197.077 23.1179ZM210.835 23.1179C210.835 19.7902 209.037 17.6418 206.251 17.6418C203.465 17.6418 201.629 19.7838 201.629 23.1179C201.629 26.4521 203.439 28.6451 206.251 28.6451C209.062 28.6451 210.835 26.4839 210.835 23.1179Z" fill="#1E1E1E"/>
<path d="M219.237 27.8734V17.9029C219.237 17.8009 219.167 17.7307 219.065 17.7307H215.788C215.686 17.7307 215.616 17.6606 215.616 17.5586V14.3838C215.616 14.2818 215.686 14.2117 215.788 14.2117H217.426C218.752 14.2117 219.485 13.4786 219.485 12.1526V9.30933C219.485 9.20733 219.556 9.13721 219.658 9.13721H223.636C223.738 9.13721 223.808 9.20733 223.808 9.30933V14.0332C223.808 14.1352 223.878 14.2053 223.98 14.2053H227.257C227.359 14.2053 227.429 14.2755 227.429 14.3775V17.5522C227.429 17.6542 227.359 17.7244 227.257 17.7244H223.98C223.878 17.7244 223.808 17.7945 223.808 17.8965V26.6302C223.808 27.867 224.12 28.1794 225.357 28.1794H227.257C227.359 28.1794 227.429 28.2495 227.429 28.3515V31.8896C227.429 31.9916 227.359 32.0618 227.257 32.0618H223.438C220.614 32.0618 219.237 30.7039 219.237 27.8606V27.8734Z" fill="#1E1E1E"/>
<path d="M228.519 26.6051C228.5 26.4839 228.57 26.4138 228.678 26.4138H232.739C232.841 26.4138 232.911 26.4648 232.93 26.5732C233.453 28.4028 235.04 29.0339 236.991 29.0339C239.554 29.0339 240.638 28.0394 240.638 26.8027C240.638 25.0049 238.406 24.9922 235.863 24.8647C232.567 24.7244 228.716 23.9212 228.716 19.6308C228.716 16.3349 231.26 13.8423 236.526 13.8423C240.778 13.8423 244.163 15.4998 244.616 19.5097C244.635 19.6308 244.546 19.7009 244.444 19.7009H240.415C240.313 19.7009 240.242 19.6499 240.223 19.5415C239.79 17.833 238.445 17.272 236.526 17.272C234.346 17.272 232.969 18.0052 232.969 19.363C232.969 20.8994 234.868 21.0716 237.221 21.1608C240.548 21.2628 244.89 21.6326 244.89 26.4967C244.89 30.2643 242.257 32.4255 236.921 32.4255C232.369 32.4255 229.182 30.5576 228.519 26.6051Z" fill="#1E1E1E"/>
<path d="M248.307 31.8897L256.849 7.21838C256.888 7.12913 256.97 7.07812 257.06 7.07812H262.606C262.695 7.07812 262.778 7.12913 262.816 7.21838L271.359 31.8897C271.397 32.0108 271.34 32.0809 271.219 32.0809H266.565C266.476 32.0809 266.393 32.0299 266.354 31.9407L264.837 27.3379C264.805 27.2487 264.716 27.1977 264.627 27.1977H255.039C254.95 27.1977 254.867 27.2487 254.828 27.3379L253.311 31.9407C253.279 32.0299 253.19 32.0809 253.101 32.0809H248.447C248.326 32.0809 248.275 32.0108 248.307 31.8897ZM256.378 23.3089H263.282C263.403 23.3089 263.454 23.2388 263.422 23.1177L259.935 12.6244C259.884 12.465 259.775 12.465 259.724 12.6244L256.237 23.1177C256.205 23.2388 256.256 23.3089 256.378 23.3089Z" fill="#1E1E1E"/>
<path d="M273.979 31.9024V7.25025C273.979 7.14825 274.049 7.07812 274.151 7.07812H278.582C278.684 7.07812 278.754 7.14825 278.754 7.25025V31.9024C278.754 32.0044 278.684 32.0746 278.582 32.0746H274.151C274.049 32.0746 273.979 32.0044 273.979 31.9024Z" fill="#1E1E1E"/>
<path d="M74.135 55.6303H46.7544L19.3609 28.2368H46.7416L74.135 55.6303Z" fill="#1E1E1E"/>
<path d="M74.135 28.2367H46.7544L19.3609 0.843262H46.7416L74.135 28.2367Z" fill="#1E1E1E"/>
<path d="M19.3609 36.269V55.63L0 36.269H19.3609Z" fill="#1E1E1E"/>
<path d="M19.3609 28.2559V56L0 36.6391V8.90137L19.3609 28.2559Z" fill="#1E1E1E"/>
<path d="M89.3777 42.9634V45.0991H91.5516V45.5772H89.3777V47.7511H91.7939V48.2292H88.804V42.4917H91.7939V42.9698H89.3777V42.9634Z" fill="#1E1E1E"/>
<path d="M96.25 42.8423C96.7026 43.0718 97.0533 43.4033 97.2891 43.8368C97.5314 44.2703 97.6525 44.7803 97.6525 45.3795C97.6525 45.9788 97.5314 46.476 97.2891 46.9095C97.0469 47.3367 96.7026 47.6682 96.25 47.8913C95.7974 48.1208 95.2555 48.2292 94.618 48.2292H92.9222V42.5044H94.618C95.2491 42.5044 95.7974 42.6191 96.25 42.8486V42.8423ZM96.4413 47.1199C96.862 46.6992 97.066 46.119 97.066 45.3732C97.066 44.6273 96.8556 44.028 96.4413 43.6073C96.0205 43.1865 95.4149 42.9698 94.618 42.9698H93.496V47.7447H94.618C95.4149 47.7447 96.0205 47.5343 96.4413 47.1199Z" fill="#1E1E1E"/>
<path d="M99.259 42.4981V46.1063C99.259 46.6737 99.3929 47.0945 99.667 47.3686C99.9348 47.6427 100.305 47.7766 100.776 47.7766C101.248 47.7766 101.611 47.6427 101.879 47.3686C102.147 47.1008 102.274 46.6737 102.274 46.1V42.4917H102.848V46.0872C102.848 46.814 102.657 47.3622 102.268 47.7256C101.886 48.089 101.382 48.2738 100.764 48.2738C100.145 48.2738 99.6479 48.089 99.259 47.7256C98.8765 47.3622 98.6789 46.814 98.6789 46.0872V42.4917H99.2526L99.259 42.4981Z" fill="#1E1E1E"/>
<path d="M104.232 43.843C104.48 43.3967 104.812 43.0525 105.239 42.8038C105.666 42.5552 106.138 42.4341 106.667 42.4341C107.304 42.4341 107.853 42.5871 108.312 42.8867C108.771 43.1927 109.102 43.6198 109.306 44.1681H108.637C108.471 43.7792 108.222 43.4796 107.884 43.2565C107.547 43.0397 107.145 42.9313 106.667 42.9313C106.246 42.9313 105.87 43.027 105.532 43.2246C105.194 43.4222 104.933 43.7027 104.742 44.0725C104.55 44.4422 104.455 44.8693 104.455 45.3538C104.455 45.8383 104.55 46.2655 104.742 46.6352C104.933 46.9986 105.194 47.2855 105.532 47.4767C105.87 47.6743 106.246 47.77 106.667 47.77C107.145 47.77 107.547 47.6616 107.884 47.4448C108.222 47.2281 108.471 46.9285 108.637 46.546H109.306C109.096 47.0942 108.764 47.515 108.305 47.8146C107.846 48.1142 107.298 48.2672 106.667 48.2672C106.144 48.2672 105.666 48.1461 105.239 47.8975C104.812 47.6488 104.474 47.3046 104.232 46.8583C103.989 46.4121 103.862 45.9148 103.862 45.3538C103.862 44.7928 103.983 44.2892 104.232 43.843Z" fill="#1E1E1E"/>
<path d="M113.762 46.8651H111.155L110.658 48.223H110.052L112.143 42.5684H112.793L114.871 48.223H114.266L113.769 46.8651H113.762ZM113.59 46.387L112.462 43.2887L111.333 46.387H113.596H113.59Z" fill="#1E1E1E"/>
<path d="M119.136 42.498V42.9762H117.549V48.2292H116.975V42.9762H115.375V42.498H119.136Z" fill="#1E1E1E"/>
<path d="M120.615 42.498V48.2228H120.042V42.498H120.615Z" fill="#1E1E1E"/>
<path d="M123.051 47.9102C122.617 47.6616 122.279 47.3173 122.031 46.8711C121.782 46.4248 121.661 45.9212 121.661 45.3602C121.661 44.7992 121.782 44.2956 122.031 43.8493C122.279 43.4031 122.617 43.0588 123.051 42.8102C123.484 42.5616 123.962 42.4404 124.491 42.4404C125.02 42.4404 125.511 42.5679 125.945 42.8102C126.378 43.0588 126.716 43.4031 126.958 43.8493C127.201 44.2956 127.328 44.7992 127.328 45.3602C127.328 45.9212 127.207 46.4248 126.958 46.8711C126.71 47.3173 126.372 47.6616 125.945 47.9102C125.511 48.1588 125.027 48.2863 124.491 48.2863C123.956 48.2863 123.478 48.1588 123.051 47.9102ZM125.639 47.4831C125.977 47.2854 126.244 47.0049 126.442 46.6352C126.64 46.2654 126.735 45.8383 126.735 45.3538C126.735 44.8693 126.64 44.4422 126.442 44.0724C126.244 43.7091 125.977 43.4222 125.639 43.2309C125.301 43.0333 124.918 42.9377 124.491 42.9377C124.064 42.9377 123.682 43.0333 123.344 43.2309C123.006 43.4286 122.738 43.7091 122.541 44.0724C122.343 44.4358 122.247 44.8629 122.247 45.3538C122.247 45.8447 122.343 46.2654 122.541 46.6352C122.738 47.0049 123.006 47.2854 123.344 47.4831C123.682 47.6807 124.064 47.7763 124.491 47.7763C124.918 47.7763 125.301 47.6807 125.639 47.4831Z" fill="#1E1E1E"/>
<path d="M132.696 48.2228H132.122L128.954 43.4033V48.2228H128.38V42.498H128.954L132.122 47.3048V42.498H132.696V48.2228Z" fill="#1E1E1E"/>
<path d="M148.034 42.498V42.9762H146.447V48.2292H145.873V42.9762H144.273V42.498H148.034Z" fill="#1E1E1E"/>
<path d="M149.513 42.9634V45.0991H151.687V45.5772H149.513V47.7511H151.929V48.2292H148.94V42.4917H151.929V42.9698H149.513V42.9634Z" fill="#1E1E1E"/>
<path d="M153.173 43.843C153.421 43.3967 153.753 43.0525 154.18 42.8038C154.607 42.5552 155.079 42.4341 155.608 42.4341C156.245 42.4341 156.794 42.5871 157.253 42.8867C157.712 43.1927 158.043 43.6198 158.247 44.1681H157.578C157.412 43.7792 157.163 43.4796 156.825 43.2565C156.488 43.0397 156.086 42.9313 155.608 42.9313C155.187 42.9313 154.811 43.027 154.473 43.2246C154.135 43.4222 153.874 43.7027 153.683 44.0725C153.491 44.4422 153.396 44.8693 153.396 45.3538C153.396 45.8383 153.491 46.2655 153.683 46.6352C153.874 46.9986 154.135 47.2855 154.473 47.4767C154.811 47.6743 155.187 47.77 155.608 47.77C156.086 47.77 156.488 47.6616 156.825 47.4448C157.163 47.2281 157.412 46.9285 157.578 46.546H158.247C158.037 47.0942 157.705 47.515 157.246 47.8146C156.787 48.1142 156.239 48.2672 155.608 48.2672C155.085 48.2672 154.607 48.1461 154.18 47.8975C153.753 47.6488 153.415 47.3046 153.173 46.8583C152.93 46.4121 152.803 45.9148 152.803 45.3538C152.803 44.7928 152.924 44.2892 153.173 43.843Z" fill="#1E1E1E"/>
<path d="M163.634 42.498V48.2228H163.06V45.5453H159.956V48.2228H159.382V42.498H159.956V45.0736H163.06V42.498H163.634Z" fill="#1E1E1E"/>
<path d="M169.263 48.2228H168.689L165.521 43.4033V48.2228H164.947V42.498H165.521L168.689 47.3048V42.498H169.263V48.2228Z" fill="#1E1E1E"/>
<path d="M171.698 47.9102C171.265 47.6616 170.927 47.3173 170.678 46.8711C170.43 46.4248 170.309 45.9212 170.309 45.3602C170.309 44.7992 170.43 44.2956 170.678 43.8493C170.927 43.4031 171.265 43.0588 171.698 42.8102C172.132 42.5616 172.61 42.4404 173.139 42.4404C173.668 42.4404 174.159 42.5679 174.593 42.8102C175.026 43.0588 175.364 43.4031 175.606 43.8493C175.848 44.2956 175.976 44.7992 175.976 45.3602C175.976 45.9212 175.855 46.4248 175.606 46.8711C175.358 47.3173 175.02 47.6616 174.593 47.9102C174.159 48.1588 173.675 48.2863 173.139 48.2863C172.604 48.2863 172.125 48.1588 171.698 47.9102ZM174.287 47.4831C174.624 47.2854 174.892 47.0049 175.09 46.6352C175.287 46.2654 175.383 45.8383 175.383 45.3538C175.383 44.8693 175.287 44.4422 175.09 44.0724C174.892 43.7091 174.624 43.4222 174.287 43.2309C173.949 43.0333 173.566 42.9377 173.139 42.9377C172.712 42.9377 172.329 43.0333 171.992 43.2309C171.654 43.4286 171.386 43.7091 171.188 44.0724C170.991 44.4358 170.895 44.8629 170.895 45.3538C170.895 45.8447 170.991 46.2654 171.188 46.6352C171.386 47.0049 171.654 47.2854 171.992 47.4831C172.329 47.6807 172.712 47.7763 173.139 47.7763C173.566 47.7763 173.949 47.6807 174.287 47.4831Z" fill="#1E1E1E"/>
<path d="M177.595 47.7574H179.654V48.2228H177.021V42.498H177.595V47.7574Z" fill="#1E1E1E"/>
<path d="M181.599 47.9102C181.165 47.6616 180.827 47.3173 180.579 46.8711C180.33 46.4248 180.209 45.9212 180.209 45.3602C180.209 44.7992 180.33 44.2956 180.579 43.8493C180.827 43.4031 181.165 43.0588 181.599 42.8102C182.032 42.5616 182.51 42.4404 183.039 42.4404C183.569 42.4404 184.059 42.5679 184.493 42.8102C184.926 43.0588 185.264 43.4031 185.507 43.8493C185.749 44.2956 185.876 44.7992 185.876 45.3602C185.876 45.9212 185.755 46.4248 185.507 46.8711C185.258 47.3173 184.92 47.6616 184.493 47.9102C184.059 48.1588 183.575 48.2863 183.039 48.2863C182.504 48.2863 182.026 48.1588 181.599 47.9102ZM184.193 47.4831C184.531 47.2854 184.799 47.0049 184.997 46.6352C185.194 46.2654 185.29 45.8383 185.29 45.3538C185.29 44.8693 185.194 44.4422 184.997 44.0724C184.799 43.7091 184.531 43.4222 184.193 43.2309C183.855 43.0333 183.473 42.9377 183.046 42.9377C182.619 42.9377 182.236 43.0333 181.898 43.2309C181.56 43.4286 181.293 43.7091 181.095 44.0724C180.897 44.4358 180.802 44.8629 180.802 45.3538C180.802 45.8447 180.897 46.2654 181.095 46.6352C181.293 47.0049 181.56 47.2854 181.898 47.4831C182.236 47.6807 182.619 47.7763 183.046 47.7763C183.473 47.7763 183.855 47.6807 184.193 47.4831Z" fill="#1E1E1E"/>
<path d="M191.435 44.1681C191.27 43.7919 191.021 43.4923 190.683 43.2819C190.345 43.0652 189.95 42.9568 189.497 42.9568C189.07 42.9568 188.688 43.0524 188.35 43.2501C188.012 43.4477 187.744 43.7282 187.547 44.0916C187.349 44.4549 187.253 44.8757 187.253 45.3602C187.253 45.8447 187.349 46.2654 187.547 46.6288C187.744 46.9922 188.012 47.2791 188.35 47.4703C188.688 47.6679 189.07 47.7636 189.497 47.7636C189.899 47.7636 190.256 47.6807 190.575 47.5086C190.894 47.3364 191.149 47.0878 191.346 46.7691C191.537 46.4503 191.652 46.0742 191.678 45.6534H189.268V45.1881H192.283V45.6088C192.258 46.1124 192.118 46.5651 191.875 46.9731C191.633 47.3811 191.302 47.6998 190.887 47.9357C190.473 48.1716 190.014 48.2863 189.497 48.2863C188.981 48.2863 188.484 48.1588 188.057 47.9102C187.623 47.6616 187.285 47.3173 187.037 46.8711C186.788 46.4248 186.667 45.9212 186.667 45.3602C186.667 44.7992 186.788 44.2956 187.037 43.8493C187.285 43.4031 187.623 43.0588 188.057 42.8102C188.49 42.5616 188.968 42.4404 189.497 42.4404C190.109 42.4404 190.645 42.5934 191.104 42.8994C191.563 43.2054 191.894 43.6326 192.105 44.1808H191.435V44.1681Z" fill="#1E1E1E"/>
<path d="M197.122 42.498L195.286 45.9979V48.2292H194.712V45.9979L192.863 42.498H193.514L195.005 45.4752L196.491 42.498H197.128H197.122Z" fill="#1E1E1E"/>
<path d="M139.415 42.0195H138.975V48.6878H139.415V42.0195Z" fill="#1E1E1E"/>
</svg>
