<svg width="55" height="54" viewBox="0 0 55 54" fill="none" xmlns="http://www.w3.org/2000/svg">
<path d="M27.8356 14.7325C30.9954 14.7325 33.709 12.9259 34.919 10.3484C43.4016 13.1689 49.1805 20.798 49.1805 29.465C49.1805 29.9886 49.1596 30.5102 49.1189 31.0244C49.0387 32.0383 49.8388 32.9228 50.9071 32.999C50.9566 33.0031 51.006 33.0042 51.0544 33.0042C52.06 33.0042 52.9107 32.2678 52.9876 31.3019C53.036 30.6958 53.0613 30.0835 53.0613 29.465C53.0613 18.9966 45.9141 9.82479 35.5235 6.67677C35.1509 2.94254 31.8669 0 27.8356 0C23.5558 0 20.074 3.30449 20.074 7.36625C20.074 11.428 23.5558 14.7325 27.8356 14.7325ZM27.8356 3.68312C29.9754 3.68312 31.7164 5.33537 31.7164 7.36625C31.7164 9.39713 29.9754 11.0494 27.8356 11.0494C25.6957 11.0494 23.9548 9.39713 23.9548 7.36625C23.9548 5.33537 25.6957 3.68312 27.8356 3.68312Z" fill="#0089E2"/>
<path d="M47.2396 34.9902C42.9598 34.9902 39.478 38.2947 39.478 42.3565C39.478 43.6092 39.8396 44.7712 40.4243 45.8049C36.7545 48.3605 32.4286 49.7227 27.8356 49.7227C24.7538 49.7227 21.7808 49.1136 18.998 47.9109C18.0242 47.4905 16.8724 47.8973 16.4273 48.8236C15.9833 49.7498 16.4141 50.8409 17.389 51.2634C20.6796 52.6851 24.1933 53.4058 27.8345 53.4058C33.3221 53.4058 38.6899 51.6712 43.0488 48.5388C44.26 49.2805 45.6932 49.7238 47.2385 49.7238C51.5182 49.7238 55 46.4193 55 42.3575C55 38.2958 51.5182 34.9913 47.2385 34.9913L47.2396 34.9902ZM47.2396 46.0396C45.0997 46.0396 43.3588 44.3874 43.3588 42.3565C43.3588 40.3256 45.0997 38.6734 47.2396 38.6734C49.3794 38.6734 51.1203 40.3256 51.1203 42.3565C51.1203 44.3874 49.3794 46.0396 47.2396 46.0396Z" fill="#0089E2"/>
<path d="M8.43151 34.9902C8.05893 34.9902 7.70173 35.0465 7.34234 35.0945C6.78731 33.2723 6.49056 31.3864 6.49056 29.4661C6.49056 22.7142 10.0197 16.4275 15.9282 12.6505C16.8174 12.082 17.0515 10.9378 16.4547 10.0939C15.8546 9.25008 14.6522 9.02686 13.7609 9.59429C6.77852 14.0566 2.60977 21.4854 2.60977 29.465C2.60977 31.8766 3.00653 34.2413 3.7473 36.5215C1.88988 37.8681 0.669922 39.9709 0.669922 42.3565C0.669922 46.4182 4.15176 49.7227 8.43151 49.7227C12.7113 49.7227 16.1931 46.4182 16.1931 42.3565C16.1931 38.2947 12.7113 34.9902 8.43151 34.9902ZM8.43151 46.0396C6.29163 46.0396 4.55072 44.3873 4.55072 42.3565C4.55072 40.3256 6.29163 38.6733 8.43151 38.6733C10.5714 38.6733 12.3123 40.3256 12.3123 42.3565C12.3123 44.3873 10.5714 46.0396 8.43151 46.0396Z" fill="#0089E2"/>
<path d="M27.8356 36.8316C23.5558 36.8316 20.074 33.5271 20.074 29.4654C20.074 25.4036 23.5558 22.0991 27.8356 22.0991C32.1153 22.0991 35.5972 25.4036 35.5972 29.4654C35.5972 33.5271 32.1153 36.8316 27.8356 36.8316ZM27.8356 25.7822C25.6957 25.7822 23.9548 27.4345 23.9548 29.4654C23.9548 31.4963 25.6957 33.1485 27.8356 33.1485C29.9754 33.1485 31.7164 31.4963 31.7164 29.4654C31.7164 27.4345 29.9754 25.7822 27.8356 25.7822Z" fill="#0089E2"/>
</svg>
