<svg width="54" height="52" viewBox="0 0 54 52" fill="none" xmlns="http://www.w3.org/2000/svg">
<path d="M41.6892 17.8934C41.7672 19.8835 44.7765 19.8825 44.8535 17.8934V11.7029L41.6892 12.801V17.8944V17.8934Z" fill="#0089E2"/>
<path d="M10.1902 8.8649L26.4539 14.5109C26.8052 14.633 27.1891 14.633 27.5404 14.5109L43.8146 8.8649C45.1911 8.3894 45.1911 6.52043 43.8146 6.04393L27.5456 0.39897C27.1944 0.276841 26.8094 0.276841 26.4592 0.39897L10.1902 6.04493C8.81375 6.52043 8.8148 8.3894 10.1902 8.8659V8.8649Z" fill="#0089E2"/>
<path d="M16.1002 33.0653C16.1002 30.2573 13.6931 27.9719 10.7334 27.9719C3.62314 28.2282 3.62525 37.9034 10.7334 38.1587C13.6921 38.1587 16.1002 35.8733 16.1002 33.0653Z" fill="#0089E2"/>
<path d="M48.6381 33.0653C48.6381 30.2573 46.23 27.9719 43.2714 27.9719C36.1611 28.2282 36.1632 37.9034 43.2714 38.1587C46.23 38.1587 48.6381 35.8733 48.6381 33.0653Z" fill="#0089E2"/>
<path d="M21.6358 33.0653C21.6358 35.8733 24.0428 38.1587 27.0025 38.1587C34.1128 37.9024 34.1107 28.2272 27.0025 27.9719C24.0439 27.9719 21.6358 30.2573 21.6358 33.0653Z" fill="#0089E2"/>
<path d="M43.2713 38.1589C41.1522 38.1589 39.1745 38.7446 37.509 39.7546C39.6143 42.0641 40.8885 45.0672 40.8885 48.3457V51.5621H52.4215C53.2949 51.5621 54.0037 50.8894 54.0037 50.0605V48.3457C54.0037 42.7288 49.1886 38.1589 43.2702 38.1589H43.2713Z" fill="#0089E2"/>
<path d="M26.9129 38.1589C20.9513 38.1589 16.1003 42.7288 16.1003 48.3457V51.5621H37.7255V48.3457C37.7255 42.7288 32.8745 38.1589 26.9129 38.1589Z" fill="#0089E2"/>
<path d="M10.7335 38.1589C4.81508 38.1589 0 42.7288 0 48.3457V50.0605C0 50.8894 0.708814 51.5621 1.58217 51.5621H12.9359V48.3457C12.9359 45.0342 14.2364 42.004 16.3797 39.6855C14.7385 38.7185 12.804 38.1589 10.7345 38.1589H10.7335Z" fill="#0089E2"/>
<path d="M37.0576 19.7774V14.4067L28.6257 17.3318C27.5815 17.6972 26.4086 17.6972 25.3643 17.3318L16.9461 14.4097V19.7804C16.9461 20.4111 17.3606 20.9747 17.9851 21.1909L26.4529 24.13C26.8041 24.2521 27.188 24.2521 27.5393 24.13L36.0176 21.1889C36.6421 20.9727 37.0566 20.4091 37.0566 19.7784L37.0576 19.7774Z" fill="#0089E2"/>
</svg>
